{"glyphs":{"0":{"ha":828,"x_min":17,"x_max":808,"o":"m 458 -4 q 336 -4 397 -17 q 196 60 258 11 q 74 213 117 119 q 31 344 44 275 q 22 482 17 413 q 56 647 28 565 q 138 792 85 728 q 224 876 175 839 q 331 931 274 913 q 497 940 414 957 q 646 865 581 922 q 739 753 703 817 q 791 624 774 693 q 807 486 808 556 q 786 335 806 411 q 726 196 767 260 q 668 117 701 154 q 594 53 635 81 q 529 18 564 33 q 458 -4 494 3 m 363 249 q 403 238 382 236 q 428 243 415 238 q 451 257 440 249 q 496 305 478 276 q 528 364 514 333 q 557 457 547 408 q 565 554 567 506 q 562 611 565 582 q 547 668 558 640 q 531 701 540 685 q 506 728 521 717 q 461 742 483 744 q 418 726 439 740 q 379 688 397 711 q 349 640 361 665 q 311 535 324 590 q 300 422 299 479 q 306 356 300 389 q 326 292 311 322 q 342 267 333 279 q 363 249 351 256 z "},"1":{"ha":474,"x_min":-1,"x_max":440,"o":"m 382 21 q 318 -9 354 -1 q 247 -14 282 -17 q 191 1 219 -11 q 143 33 163 13 q 120 74 128 51 q 110 119 113 96 q 104 181 104 150 q 104 242 104 211 q 113 452 107 347 q 124 663 119 557 q 90 663 107 660 q 56 672 72 665 q 28 691 40 679 q 11 718 17 703 q 8 790 -1 751 q 39 858 18 829 q 72 892 53 878 q 113 917 90 906 q 194 941 151 935 q 281 944 238 947 q 334 934 308 942 q 382 911 360 926 q 422 851 411 890 q 433 752 436 803 q 428 650 429 701 q 428 578 428 632 q 430 464 429 525 q 432 349 431 403 q 435 278 433 296 q 439 192 438 235 q 431 108 440 149 q 413 60 425 83 q 382 21 401 36 z "},"2":{"ha":765,"x_min":26,"x_max":743,"o":"m 579 -1 q 436 -1 507 -4 q 293 6 365 3 q 213 7 253 7 q 132 11 172 7 q 91 19 111 14 q 56 40 71 25 q 40 65 44 51 q 32 93 35 78 q 30 131 29 104 q 33 186 31 157 q 38 242 35 215 q 43 279 40 268 q 56 318 47 299 q 79 353 64 338 q 119 384 96 372 q 165 404 142 396 q 244 424 204 417 q 321 450 285 432 q 344 465 333 456 q 363 486 354 475 q 380 524 375 504 q 382 563 385 544 q 369 599 379 582 q 339 625 358 615 q 289 638 315 636 q 236 636 263 639 q 182 628 208 633 q 129 628 156 624 q 64 660 89 632 q 33 722 40 683 q 28 776 29 749 q 32 831 26 803 q 44 863 36 847 q 68 890 53 879 q 121 916 92 907 q 179 929 150 925 q 302 940 240 940 q 426 936 364 939 q 531 919 479 933 q 626 874 583 904 q 678 826 654 854 q 715 767 701 799 q 733 704 729 738 q 732 639 736 671 q 705 558 725 597 q 657 488 685 519 q 621 453 640 468 q 581 423 601 438 q 540 393 560 408 q 503 360 519 378 q 487 340 494 351 q 476 318 479 329 q 482 286 472 301 q 511 264 490 272 q 556 251 532 256 q 605 246 581 247 q 646 244 629 244 q 692 231 672 244 q 723 195 711 217 q 739 147 735 174 q 742 93 743 119 q 733 55 739 74 q 714 22 728 36 q 688 9 706 14 q 650 2 671 4 q 610 -1 629 0 q 579 -1 590 -1 z "},"3":{"ha":731,"x_min":15,"x_max":708,"o":"m 526 -15 q 426 -42 479 -36 q 321 -43 374 -47 q 207 -21 263 -36 q 99 19 151 -6 q 53 56 71 33 q 27 105 35 78 q 24 160 19 132 q 47 214 29 189 q 78 244 60 231 q 118 260 97 257 q 178 259 147 265 q 239 245 208 253 q 299 232 269 238 q 358 233 329 226 q 401 265 385 240 q 414 317 417 290 q 408 335 411 326 q 397 350 404 343 q 374 362 390 357 q 338 369 357 367 q 301 372 319 371 q 274 375 283 374 q 234 384 254 376 q 203 407 214 392 q 190 443 192 422 q 190 485 188 464 q 201 527 193 507 q 222 561 210 547 q 261 586 239 579 q 313 598 286 596 q 364 611 340 600 q 396 642 389 622 q 395 681 403 663 q 368 713 388 700 q 321 725 349 726 q 242 703 281 722 q 165 674 204 685 q 115 669 140 665 q 69 684 89 672 q 35 716 49 696 q 18 763 21 736 q 24 819 15 790 q 50 869 32 849 q 115 915 76 900 q 193 938 153 931 q 272 949 232 944 q 353 954 313 954 q 434 949 394 954 q 511 929 474 943 q 602 872 564 910 q 660 787 640 835 q 677 686 679 739 q 649 583 675 633 q 611 530 633 554 q 564 486 589 506 q 617 469 592 482 q 661 436 643 457 q 693 378 683 411 q 706 313 703 346 q 689 188 708 250 q 633 72 669 125 q 586 22 614 44 q 526 -15 558 -1 z "},"4":{"ha":799,"x_min":18,"x_max":768,"o":"m 640 -17 q 583 -18 613 -21 q 526 -7 554 -15 q 488 11 507 0 q 456 40 468 22 q 433 94 438 64 q 428 154 428 125 q 437 240 429 199 q 449 325 444 282 q 321 313 385 318 q 193 313 257 308 q 129 325 161 315 q 74 358 97 335 q 44 406 54 378 q 31 464 33 435 q 22 602 25 533 q 28 739 18 671 q 40 797 32 768 q 61 851 47 825 q 94 896 74 875 q 139 928 114 917 q 185 941 158 938 q 240 942 213 944 q 293 930 268 939 q 333 906 318 921 q 352 866 347 892 q 356 812 357 840 q 349 756 354 783 q 339 708 344 728 q 323 653 331 681 q 310 597 315 625 q 307 578 308 589 q 306 555 306 567 q 307 533 306 543 q 314 517 308 522 q 342 509 322 508 q 384 513 361 510 q 428 519 407 517 q 460 521 449 522 q 453 574 457 549 q 447 628 450 600 q 444 706 443 667 q 454 783 444 744 q 472 836 461 811 q 503 881 483 861 q 533 905 515 896 q 569 917 550 914 q 622 920 593 921 q 676 912 650 919 q 724 890 703 904 q 754 853 744 875 q 767 799 765 826 q 765 743 768 771 q 750 663 760 703 q 736 582 740 622 q 731 433 729 507 q 743 286 732 360 q 756 204 750 246 q 760 121 763 163 q 751 71 758 96 q 728 26 744 46 q 688 -2 713 8 q 640 -17 664 -12 z "},"5":{"ha":740,"x_min":25,"x_max":719,"o":"m 568 28 q 431 -22 506 -8 q 283 -31 357 -35 q 191 -19 238 -28 q 106 13 144 -11 q 53 63 74 32 q 28 131 33 94 q 29 177 25 154 q 47 219 33 200 q 80 250 60 238 q 121 267 100 263 q 188 267 154 274 q 257 251 222 261 q 326 235 292 242 q 393 235 360 228 q 418 243 406 238 q 440 258 431 249 q 456 278 450 267 q 465 303 463 290 q 472 355 472 328 q 464 407 472 382 q 449 438 458 422 q 426 463 440 453 q 379 482 406 478 q 328 489 353 486 q 238 485 283 492 q 147 482 192 478 q 106 493 126 483 q 72 519 85 503 q 45 576 53 543 q 35 640 38 608 q 38 738 32 689 q 53 836 43 788 q 56 849 54 840 q 62 869 58 858 q 68 888 65 879 q 74 900 71 897 q 125 931 89 921 q 203 944 161 940 q 285 947 244 947 q 350 947 325 947 q 419 951 385 949 q 488 953 453 953 q 559 949 524 953 q 626 931 594 946 q 652 912 642 924 q 669 886 663 900 q 681 817 685 854 q 660 749 678 779 q 638 721 651 733 q 607 703 624 708 q 576 700 592 699 q 546 706 561 701 q 502 717 524 711 q 458 724 481 722 q 374 725 417 726 q 292 714 332 724 q 292 676 292 694 q 294 639 292 658 q 402 648 347 646 q 510 639 457 650 q 592 611 551 632 q 658 556 632 590 q 696 479 683 521 q 713 396 708 438 q 711 267 719 332 q 674 143 703 201 q 630 77 657 107 q 568 28 603 47 z "},"6":{"ha":721,"x_min":22,"x_max":700,"o":"m 544 19 q 448 -16 503 -6 q 337 -22 393 -26 q 228 1 281 -18 q 142 54 176 21 q 67 167 93 101 q 32 288 42 225 q 25 414 22 351 q 35 548 28 481 q 65 678 43 615 q 114 776 83 729 q 188 857 144 824 q 274 908 226 889 q 369 932 321 926 q 514 935 446 940 q 566 926 540 932 q 615 908 592 921 q 643 889 631 900 q 664 864 656 878 q 679 820 675 844 q 680 771 683 796 q 666 724 676 746 q 639 688 656 701 q 607 669 625 675 q 571 663 589 663 q 503 674 536 663 q 435 685 469 685 q 388 676 410 685 q 349 653 365 668 q 324 619 332 639 q 324 575 317 599 q 433 597 376 589 q 542 590 489 606 q 657 500 618 568 q 693 379 689 444 q 685 242 700 311 q 633 115 669 174 q 594 63 617 88 q 544 19 572 38 m 294 322 q 308 288 299 306 q 329 258 317 271 q 358 237 342 244 q 392 231 374 229 q 426 247 414 233 q 445 276 439 260 q 453 312 451 293 q 453 349 456 331 q 443 382 450 367 q 395 433 426 414 q 332 435 364 451 q 311 415 319 428 q 298 387 303 403 q 292 353 293 371 q 294 322 292 336 z "},"7":{"ha":547,"x_min":10,"x_max":560,"o":"m 243 -10 q 176 -8 211 -15 q 114 18 140 -1 q 88 48 99 31 q 71 85 76 65 q 63 144 63 114 q 69 204 63 175 q 96 308 81 257 q 129 411 111 360 q 182 558 154 486 q 244 701 210 631 q 176 676 211 688 q 106 672 140 665 q 47 701 69 678 q 17 755 25 724 q 19 819 10 786 q 53 879 28 853 q 92 907 68 896 q 163 923 114 915 q 266 935 211 931 q 370 941 321 939 q 443 942 419 943 q 488 935 465 939 q 525 915 510 931 q 547 885 540 903 q 557 847 554 867 q 554 786 560 817 q 539 726 549 756 q 491 592 517 658 q 446 456 465 525 q 413 319 428 388 q 386 182 397 251 q 376 115 381 149 q 351 53 371 81 q 304 12 333 26 q 243 -10 275 -3 z "},"8":{"ha":744,"x_min":19,"x_max":719,"o":"m 524 -6 q 428 -21 478 -19 q 331 -19 379 -22 q 224 -3 278 -17 q 126 42 171 11 q 54 119 83 71 q 25 211 31 161 q 31 308 19 261 q 65 394 42 353 q 121 467 89 435 q 136 481 128 474 q 154 493 144 488 q 120 525 135 507 q 94 563 106 543 q 66 626 76 592 q 58 696 56 661 q 84 786 61 742 q 143 861 107 831 q 205 901 171 885 q 275 924 239 917 q 435 932 353 942 q 586 883 518 922 q 672 801 636 856 q 711 690 707 747 q 690 568 715 629 q 617 469 664 507 q 662 409 643 442 q 696 342 681 376 q 717 253 714 300 q 707 163 719 206 q 684 106 699 133 q 647 58 669 79 q 590 19 622 35 q 524 -6 557 4 m 315 607 q 353 588 331 593 q 397 585 375 583 q 461 601 429 588 q 515 638 493 614 q 534 665 526 649 q 539 699 542 682 q 519 725 535 714 q 489 742 504 736 q 438 745 465 747 q 384 733 410 743 q 337 708 358 724 q 304 669 315 692 q 315 607 288 633 m 336 151 q 392 153 363 147 q 446 173 421 158 q 491 208 471 188 q 521 256 511 229 q 528 284 526 269 q 525 313 529 299 q 503 346 518 333 q 468 364 488 358 q 426 367 449 369 q 382 358 403 365 q 317 322 347 347 q 275 261 288 296 q 268 224 268 244 q 276 189 268 204 q 302 164 286 174 q 336 151 318 154 z "},"9":{"ha":721,"x_min":21,"x_max":699,"o":"m 351 -19 q 280 -25 315 -24 q 208 -22 244 -26 q 156 -14 182 -19 q 107 4 131 -8 q 58 49 75 21 q 43 92 47 68 q 42 142 39 117 q 56 188 46 167 q 83 225 67 210 q 151 250 113 250 q 219 239 186 250 q 288 228 253 228 q 335 236 313 228 q 374 259 357 244 q 397 294 390 274 q 397 338 404 314 q 289 315 344 324 q 181 322 233 307 q 65 413 106 343 q 40 471 49 440 q 28 533 31 501 q 37 670 21 601 q 89 797 53 739 q 128 850 106 825 q 178 892 150 875 q 274 928 219 918 q 385 935 329 939 q 493 911 442 931 q 581 857 544 892 q 623 806 604 833 q 656 746 642 778 q 690 624 681 688 q 696 499 699 561 q 686 365 693 432 q 657 235 679 297 q 608 135 639 182 q 535 54 576 89 q 448 5 496 24 q 351 -19 400 -14 m 279 531 q 300 501 288 514 q 327 479 313 488 q 358 470 342 471 q 390 478 375 469 q 411 497 403 483 q 424 526 419 510 q 430 558 429 542 q 428 589 431 575 q 394 655 421 625 q 331 682 367 685 q 296 665 308 679 q 268 601 272 640 q 279 531 264 561 z "},"\u0000":{"ha":0,"x_min":0,"x_max":0,"o":""},"\r":{"ha":347,"x_min":0,"x_max":0,"o":""}," ":{"ha":347,"x_min":0,"x_max":0,"o":""},"!":{"ha":410,"x_min":29,"x_max":382,"o":"m 311 364 q 274 342 296 349 q 229 333 251 335 q 162 342 196 332 q 103 374 128 353 q 63 431 76 397 q 42 499 49 465 q 30 621 31 560 q 36 744 29 682 q 42 791 39 768 q 54 838 46 814 q 81 872 63 857 q 121 897 100 888 q 176 910 147 908 q 233 911 206 913 q 285 901 260 908 q 332 878 311 893 q 353 855 344 868 q 368 826 363 842 q 381 773 379 800 q 382 718 382 746 q 378 638 382 689 q 367 533 375 586 q 346 432 360 479 q 311 364 332 385 m 250 13 q 177 1 217 -1 q 106 24 138 4 q 76 47 89 32 q 57 79 63 61 q 52 151 47 113 q 79 217 57 189 q 128 253 99 240 q 194 266 158 265 q 263 256 231 267 q 305 228 286 246 q 333 188 324 211 q 339 127 344 160 q 318 68 333 94 q 250 13 294 31 z "},"\"":{"ha":449,"x_min":19,"x_max":429,"o":"m 140 664 q 116 652 132 657 q 89 653 100 647 q 56 687 69 663 q 35 741 43 711 q 23 801 26 771 q 19 854 19 832 q 24 882 19 869 q 40 907 28 897 q 67 922 51 917 q 101 929 83 928 q 135 929 119 931 q 159 922 147 926 q 178 908 171 917 q 193 876 189 894 q 196 839 197 857 q 192 797 196 822 q 180 745 188 771 q 163 697 172 719 q 140 664 153 674 m 374 657 q 348 646 364 650 q 322 647 332 642 q 290 681 303 657 q 268 735 276 706 q 256 795 260 765 q 253 847 253 825 q 253 862 253 854 q 256 876 253 869 q 272 901 260 892 q 301 917 285 911 q 335 923 317 922 q 368 922 353 924 q 411 901 394 919 q 426 869 422 888 q 429 832 429 850 q 425 790 429 815 q 413 738 421 764 q 396 690 406 713 q 374 657 386 667 z "},"«":{"ha":449,"x_min":19,"x_max":429,"o":"m 140 664 q 116 652 132 657 q 89 653 100 647 q 56 687 69 663 q 35 741 43 711 q 23 801 26 771 q 19 854 19 832 q 24 882 19 869 q 40 907 28 897 q 67 922 51 917 q 101 929 83 928 q 135 929 119 931 q 159 922 147 926 q 178 908 171 917 q 193 876 189 894 q 196 839 197 857 q 192 797 196 822 q 180 745 188 771 q 163 697 172 719 q 140 664 153 674 m 374 657 q 348 646 364 650 q 322 647 332 642 q 290 681 303 657 q 268 735 276 706 q 256 795 260 765 q 253 847 253 825 q 253 862 253 854 q 256 876 253 869 q 272 901 260 892 q 301 917 285 911 q 335 923 317 922 q 368 922 353 924 q 411 901 394 919 q 426 869 422 888 q 429 832 429 850 q 425 790 429 815 q 413 738 421 764 q 396 690 406 713 q 374 657 386 667 z "},"»":{"ha":449,"x_min":19,"x_max":429,"o":"m 140 664 q 116 652 132 657 q 89 653 100 647 q 56 687 69 663 q 35 741 43 711 q 23 801 26 771 q 19 854 19 832 q 24 882 19 869 q 40 907 28 897 q 67 922 51 917 q 101 929 83 928 q 135 929 119 931 q 159 922 147 926 q 178 908 171 917 q 193 876 189 894 q 196 839 197 857 q 192 797 196 822 q 180 745 188 771 q 163 697 172 719 q 140 664 153 674 m 374 657 q 348 646 364 650 q 322 647 332 642 q 290 681 303 657 q 268 735 276 706 q 256 795 260 765 q 253 847 253 825 q 253 862 253 854 q 256 876 253 869 q 272 901 260 892 q 301 917 285 911 q 335 923 317 922 q 368 922 353 924 q 411 901 394 919 q 426 869 422 888 q 429 832 429 850 q 425 790 429 815 q 413 738 421 764 q 396 690 406 713 q 374 657 386 667 z "},"„":{"ha":449,"x_min":19,"x_max":429,"o":"m 140 664 q 116 652 132 657 q 89 653 100 647 q 56 687 69 663 q 35 741 43 711 q 23 801 26 771 q 19 854 19 832 q 24 882 19 869 q 40 907 28 897 q 67 922 51 917 q 101 929 83 928 q 135 929 119 931 q 159 922 147 926 q 178 908 171 917 q 193 876 189 894 q 196 839 197 857 q 192 797 196 822 q 180 745 188 771 q 163 697 172 719 q 140 664 153 674 m 374 657 q 348 646 364 650 q 322 647 332 642 q 290 681 303 657 q 268 735 276 706 q 256 795 260 765 q 253 847 253 825 q 253 862 253 854 q 256 876 253 869 q 272 901 260 892 q 301 917 285 911 q 335 923 317 922 q 368 922 353 924 q 411 901 394 919 q 426 869 422 888 q 429 832 429 850 q 425 790 429 815 q 413 738 421 764 q 396 690 406 713 q 374 657 386 667 z "},"‟":{"ha":449,"x_min":19,"x_max":429,"o":"m 140 664 q 116 652 132 657 q 89 653 100 647 q 56 687 69 663 q 35 741 43 711 q 23 801 26 771 q 19 854 19 832 q 24 882 19 869 q 40 907 28 897 q 67 922 51 917 q 101 929 83 928 q 135 929 119 931 q 159 922 147 926 q 178 908 171 917 q 193 876 189 894 q 196 839 197 857 q 192 797 196 822 q 180 745 188 771 q 163 697 172 719 q 140 664 153 674 m 374 657 q 348 646 364 650 q 322 647 332 642 q 290 681 303 657 q 268 735 276 706 q 256 795 260 765 q 253 847 253 825 q 253 862 253 854 q 256 876 253 869 q 272 901 260 892 q 301 917 285 911 q 335 923 317 922 q 368 922 353 924 q 411 901 394 919 q 426 869 422 888 q 429 832 429 850 q 425 790 429 815 q 413 738 421 764 q 396 690 406 713 q 374 657 386 667 z "},"#":{"ha":986,"x_min":21,"x_max":965,"o":"m 850 488 q 743 483 797 481 q 636 488 689 486 q 585 488 621 488 q 504 487 550 488 q 407 486 458 486 q 310 486 356 486 q 228 486 264 486 q 179 488 193 486 q 117 498 149 490 q 64 529 85 506 q 41 572 47 547 q 38 622 35 597 q 52 669 40 647 q 85 706 64 692 q 137 731 108 722 q 193 743 165 739 q 374 758 283 758 q 557 757 465 758 q 667 754 613 756 q 778 749 722 753 q 853 738 815 746 q 922 707 892 729 q 948 676 938 694 q 961 638 958 657 q 963 579 965 610 q 943 526 960 549 q 901 499 928 507 q 850 488 875 490 m 858 153 q 741 145 800 142 q 622 149 682 149 q 572 149 607 149 q 490 149 536 149 q 393 148 444 149 q 296 147 342 147 q 215 148 250 147 q 165 150 179 149 q 104 160 135 153 q 53 189 74 168 q 27 240 33 208 q 26 299 21 271 q 42 338 31 319 q 72 368 54 357 q 118 390 93 383 q 168 403 143 397 q 235 413 201 410 q 301 417 268 415 q 511 420 407 421 q 721 414 615 419 q 783 408 753 411 q 844 397 814 406 q 899 375 872 390 q 938 332 926 360 q 950 283 949 308 q 947 233 951 257 q 924 182 943 203 q 894 163 911 169 q 858 153 876 156 z "},"$":{"ha":615,"x_min":22,"x_max":597,"o":"m 368 -11 q 344 -18 357 -17 q 319 -19 332 -19 q 278 -12 303 -19 q 244 10 253 -4 q 241 26 242 15 q 240 48 240 36 q 242 71 240 60 q 243 88 243 82 q 176 97 210 90 q 111 114 143 103 q 65 135 88 122 q 32 171 43 149 q 24 207 25 186 q 26 250 22 228 q 37 292 29 272 q 56 324 44 311 q 94 349 71 342 q 139 356 117 356 q 201 349 171 356 q 263 342 231 342 q 286 345 274 343 q 307 356 299 347 q 322 383 319 367 q 310 407 325 400 q 255 429 283 419 q 198 448 226 439 q 142 469 169 457 q 93 500 115 481 q 44 564 60 526 q 28 640 28 601 q 46 716 29 679 q 96 781 63 753 q 169 817 128 807 q 250 832 210 826 q 246 858 247 844 q 244 883 244 871 q 247 903 244 893 q 256 919 249 913 q 286 938 267 931 q 311 943 296 942 q 341 944 326 944 q 369 940 356 943 q 390 928 382 936 q 399 910 396 922 q 402 886 401 899 q 402 861 403 874 q 400 840 401 849 q 455 837 428 839 q 508 825 482 835 q 569 783 547 811 q 594 726 590 761 q 592 675 597 701 q 576 625 588 649 q 494 572 551 575 q 453 576 474 572 q 413 585 433 581 q 373 592 393 589 q 332 592 353 594 q 315 587 324 590 q 303 575 306 583 q 301 559 299 568 q 308 543 303 550 q 335 519 319 528 q 368 503 351 510 q 440 469 406 488 q 507 428 475 451 q 540 397 525 414 q 560 358 556 379 q 568 233 574 296 q 558 187 565 210 q 535 147 550 164 q 469 105 508 118 q 390 86 429 92 q 393 53 392 71 q 390 21 394 36 q 368 -11 386 0 z "},"%":{"ha":1039,"x_min":-4,"x_max":1047,"o":"m 424 -4 q 388 -17 407 -14 q 349 -19 368 -19 q 297 -15 324 -19 q 247 -1 271 -11 q 197 31 219 10 q 164 79 175 51 q 156 139 154 107 q 165 199 157 171 q 226 338 186 272 q 307 468 265 404 q 251 447 283 454 q 180 444 217 440 q 111 464 143 449 q 66 494 88 475 q 31 536 44 513 q 3 602 11 567 q -3 674 -4 638 q 18 768 -1 722 q 69 850 38 814 q 124 897 93 878 q 189 928 156 917 q 288 951 238 946 q 390 958 339 957 q 512 960 451 960 q 632 953 572 961 q 692 942 663 947 q 749 926 721 938 q 804 888 781 914 q 826 835 824 865 q 821 771 829 804 q 797 705 813 738 q 764 647 781 672 q 694 546 729 596 q 628 442 660 496 q 544 272 579 360 q 483 92 508 183 q 475 65 479 78 q 464 39 471 51 q 424 -4 451 13 m 408 731 q 417 679 417 706 q 413 628 418 653 q 472 708 442 668 q 536 785 503 747 q 511 788 529 786 q 472 791 493 789 q 433 794 451 793 q 408 796 414 796 l 363 796 q 390 766 378 782 q 408 731 401 750 m 175 611 q 204 594 188 596 q 237 599 221 592 q 265 621 253 606 q 285 656 278 636 q 288 694 290 675 q 277 728 286 714 q 253 750 268 743 q 219 751 239 757 q 192 734 204 746 q 172 707 179 722 q 161 675 164 692 q 161 642 158 658 q 175 611 167 622 m 893 19 q 821 -3 860 3 q 746 -3 782 -10 q 644 57 685 13 q 603 121 618 85 q 585 194 589 157 q 593 296 579 244 q 635 389 607 347 q 693 453 658 425 q 768 494 728 481 q 888 501 828 517 q 975 453 938 489 q 1021 388 1003 425 q 1042 313 1039 351 q 1038 217 1047 265 q 1004 128 1028 168 q 956 67 983 96 q 893 19 928 39 m 779 169 q 824 159 799 150 q 868 188 849 168 q 903 255 892 215 q 901 329 914 294 q 868 363 892 356 q 846 363 857 365 q 825 354 835 360 q 801 335 811 347 q 782 310 790 322 q 768 276 774 294 q 761 238 763 257 q 764 200 760 218 q 779 169 768 182 z "},"&":{"ha":929,"x_min":15,"x_max":938,"o":"m 404 -18 q 291 -23 349 -29 q 181 6 233 -17 q 103 51 140 22 q 47 121 67 81 q 22 200 28 157 q 22 285 15 243 q 66 395 32 343 q 149 479 100 447 q 108 534 125 503 q 85 599 92 565 q 82 700 74 649 q 115 796 90 751 q 175 865 138 835 q 236 900 203 888 q 304 919 269 913 q 453 925 376 935 q 593 879 529 915 q 619 861 607 872 q 638 836 631 850 q 650 794 649 817 q 646 753 651 772 q 628 713 640 731 q 599 679 615 694 q 554 658 581 663 q 506 656 531 653 q 458 663 482 658 q 426 669 447 664 q 381 677 404 674 q 335 682 357 681 q 304 679 314 683 q 280 660 289 672 q 269 633 271 647 q 272 603 267 618 q 290 576 278 588 q 313 565 300 568 q 338 560 325 561 q 375 558 357 557 q 413 557 393 560 q 437 553 425 556 q 458 544 449 551 q 481 519 472 535 q 493 484 489 503 q 496 447 497 465 q 489 413 494 428 q 468 378 483 399 q 438 353 453 357 q 383 349 411 346 q 329 346 356 353 q 281 301 293 335 q 294 239 269 267 q 324 220 306 226 q 364 213 343 214 q 406 217 385 213 q 442 228 426 221 q 503 274 476 244 q 549 336 529 303 q 582 403 568 368 q 608 472 596 438 q 628 497 613 485 q 658 513 644 510 q 732 519 694 518 q 807 515 769 521 q 847 506 826 513 q 883 486 868 500 q 908 444 903 471 q 908 394 913 418 q 882 347 904 365 q 861 331 872 339 q 846 311 850 322 q 845 272 839 296 q 863 222 851 247 q 888 174 875 197 q 908 136 900 150 q 921 114 915 125 q 931 92 926 103 q 928 53 938 69 q 901 27 919 39 q 859 6 882 15 q 813 -9 836 -3 q 775 -17 790 -15 q 713 -1 742 -19 q 669 48 685 18 q 635 106 653 78 q 529 26 589 60 q 404 -18 469 -7 z "},"'":{"ha":214,"x_min":19,"x_max":197,"o":"m 140 667 q 116 656 132 660 q 89 657 100 651 q 56 691 69 667 q 35 745 43 715 q 23 805 26 775 q 19 857 19 835 q 24 886 19 871 q 40 911 28 901 q 67 926 51 921 q 101 933 83 932 q 135 933 119 935 q 159 926 147 931 q 178 913 171 921 q 193 880 189 899 q 196 843 197 861 q 192 801 196 826 q 180 749 188 775 q 163 699 172 722 q 140 667 153 676 z "},"‚":{"ha":214,"x_min":19,"x_max":197,"o":"m 140 667 q 116 656 132 660 q 89 657 100 651 q 56 691 69 667 q 35 745 43 715 q 23 805 26 775 q 19 857 19 835 q 24 886 19 871 q 40 911 28 901 q 67 926 51 921 q 101 933 83 932 q 135 933 119 935 q 159 926 147 931 q 178 913 171 921 q 193 880 189 899 q 196 843 197 861 q 192 801 196 826 q 180 749 188 775 q 163 699 172 722 q 140 667 153 676 z "},"‛":{"ha":214,"x_min":19,"x_max":197,"o":"m 140 667 q 116 656 132 660 q 89 657 100 651 q 56 691 69 667 q 35 745 43 715 q 23 805 26 775 q 19 857 19 835 q 24 886 19 871 q 40 911 28 901 q 67 926 51 921 q 101 933 83 932 q 135 933 119 935 q 159 926 147 931 q 178 913 171 921 q 193 880 189 899 q 196 843 197 861 q 192 801 196 826 q 180 749 188 775 q 163 699 172 722 q 140 667 153 676 z "},"‹":{"ha":214,"x_min":19,"x_max":197,"o":"m 140 667 q 116 656 132 660 q 89 657 100 651 q 56 691 69 667 q 35 745 43 715 q 23 805 26 775 q 19 857 19 835 q 24 886 19 871 q 40 911 28 901 q 67 926 51 921 q 101 933 83 932 q 135 933 119 935 q 159 926 147 931 q 178 913 171 921 q 193 880 189 899 q 196 843 197 861 q 192 801 196 826 q 180 749 188 775 q 163 699 172 722 q 140 667 153 676 z "},"›":{"ha":214,"x_min":19,"x_max":197,"o":"m 140 667 q 116 656 132 660 q 89 657 100 651 q 56 691 69 667 q 35 745 43 715 q 23 805 26 775 q 19 857 19 835 q 24 886 19 871 q 40 911 28 901 q 67 926 51 921 q 101 933 83 932 q 135 933 119 935 q 159 926 147 931 q 178 913 171 921 q 193 880 189 899 q 196 843 197 861 q 192 801 196 826 q 180 749 188 775 q 163 699 172 722 q 140 667 153 676 z "},"(":{"ha":608,"x_min":14,"x_max":589,"o":"m 432 -29 q 330 -31 382 -35 q 232 -8 278 -28 q 153 37 190 8 q 93 104 117 65 q 57 181 71 140 q 35 261 43 221 q 31 494 14 375 q 100 715 47 614 q 156 803 124 761 q 228 878 188 844 q 280 907 251 897 q 338 922 308 917 q 485 928 414 940 q 514 920 500 925 q 539 906 528 915 q 577 856 565 885 q 588 797 589 826 q 571 738 586 767 q 529 692 556 710 q 490 672 511 679 q 446 661 468 665 q 401 653 424 657 q 357 644 378 650 q 319 625 338 638 q 290 594 301 613 q 259 495 264 550 q 274 392 254 440 q 288 367 279 379 q 310 349 297 356 q 366 334 335 333 q 426 335 397 335 q 479 330 453 335 q 526 310 506 325 q 562 269 549 294 q 579 215 575 243 q 578 132 585 174 q 552 56 571 90 q 503 -2 533 21 q 432 -29 474 -25 z "},")":{"ha":608,"x_min":19,"x_max":586,"o":"m 360 -15 q 272 -32 317 -29 q 182 -29 226 -35 q 110 -3 140 -25 q 60 53 79 19 q 33 127 40 86 q 29 210 25 168 q 44 260 32 235 q 75 303 56 286 q 117 325 93 318 q 165 333 142 332 q 226 334 196 336 q 286 343 257 332 q 323 369 308 350 q 344 414 338 389 q 351 467 350 439 q 347 518 351 494 q 338 556 344 538 q 321 592 332 575 q 290 624 310 611 q 250 644 271 638 q 175 659 214 656 q 101 679 136 663 q 48 724 68 696 q 24 786 28 753 q 31 851 19 819 q 72 907 43 883 q 124 927 92 922 q 194 931 157 932 q 265 923 231 929 q 322 908 299 917 q 400 860 365 893 q 463 792 435 828 q 535 660 507 731 q 575 517 564 590 q 585 377 586 447 q 569 240 585 307 q 540 148 558 193 q 489 68 521 103 q 430 17 464 39 q 360 -15 396 -4 z "},"*":{"ha":557,"x_min":18,"x_max":549,"o":"m 197 422 q 174 408 186 414 q 149 401 163 401 q 118 410 133 403 q 90 429 103 418 q 69 455 78 440 q 60 485 61 469 q 63 506 58 496 q 72 526 67 517 q 113 574 88 554 q 165 611 139 594 q 131 619 151 614 q 88 631 110 624 q 49 649 67 639 q 25 671 32 658 q 18 701 18 685 q 19 732 18 717 q 31 768 21 751 q 56 795 42 785 q 89 808 71 806 q 125 803 107 811 q 172 770 151 792 q 211 729 192 749 q 201 780 206 754 q 194 832 197 806 q 194 860 193 846 q 200 888 194 874 q 213 905 204 897 q 231 918 221 913 q 263 931 244 926 q 301 934 282 935 q 335 927 319 933 q 363 908 351 921 q 379 869 376 892 q 379 828 382 847 q 366 769 375 797 q 350 711 357 740 q 386 743 368 726 q 428 768 404 760 q 468 776 447 775 q 507 768 489 778 q 540 726 531 756 q 538 671 549 696 q 500 625 526 643 q 481 616 494 621 q 451 607 467 611 q 420 599 435 603 q 399 594 406 596 q 446 556 424 578 q 474 508 469 535 q 473 479 476 494 q 462 450 469 464 q 443 426 454 436 q 418 410 432 415 q 375 407 397 403 q 335 428 353 411 q 303 465 317 444 q 276 506 289 485 q 239 463 257 485 q 197 422 221 440 z "},"+":{"ha":701,"x_min":7,"x_max":693,"o":"m 457 0 q 400 -19 433 -18 q 336 -17 367 -21 q 307 -10 321 -14 q 281 1 293 -7 q 263 17 269 8 q 249 36 256 25 q 227 113 229 72 q 224 194 225 154 q 172 194 197 194 q 121 196 147 193 q 81 203 101 199 q 44 219 60 208 q 22 249 29 231 q 11 286 14 268 q 10 343 7 314 q 28 396 13 372 q 60 428 40 415 q 103 447 81 440 q 165 460 133 457 q 229 465 197 464 q 238 525 232 496 q 254 582 243 554 q 274 619 261 601 q 307 647 288 638 q 358 663 331 660 q 411 661 385 665 q 441 653 426 658 q 468 636 456 647 q 485 615 479 628 q 494 589 492 603 q 501 526 501 557 q 500 463 501 494 q 556 458 528 460 q 610 446 583 456 q 644 430 628 440 q 671 404 660 419 q 686 367 681 389 q 692 321 692 344 q 689 274 693 297 q 676 236 685 251 q 658 216 669 225 q 635 203 647 207 q 563 192 600 192 q 490 196 526 193 q 491 124 490 160 q 485 54 492 89 q 475 24 482 39 q 457 0 468 10 z "},",":{"ha":286,"x_min":14,"x_max":275,"o":"m 165 -153 q 147 -156 160 -154 q 121 -157 135 -157 q 94 -157 107 -157 q 75 -156 81 -157 q 44 -142 56 -154 q 33 -113 33 -129 q 40 -83 32 -97 q 68 -61 49 -68 q 103 -54 83 -56 q 138 -51 122 -53 q 162 -44 154 -49 q 161 -25 169 -39 q 122 -28 142 -25 q 81 -28 101 -31 q 32 -1 51 -24 q 17 28 21 11 q 15 63 14 46 q 38 118 19 96 q 84 151 57 140 q 143 160 111 163 q 204 143 175 158 q 248 103 231 129 q 271 47 265 76 q 270 -15 275 17 q 252 -75 265 -47 q 217 -124 239 -103 q 165 -153 194 -144 z "},"-":{"ha":722,"x_min":18,"x_max":704,"o":"m 594 382 q 560 381 586 381 q 506 383 535 382 q 451 383 476 383 q 417 383 425 383 q 363 383 403 383 q 278 382 324 382 q 194 382 233 382 q 140 382 154 382 q 102 388 121 385 q 67 400 83 390 q 35 433 46 411 q 18 509 18 467 q 39 583 18 551 q 69 613 50 601 q 107 632 88 625 q 165 646 135 642 q 225 651 194 650 q 327 654 276 654 q 429 653 378 654 q 498 650 464 651 q 567 644 532 649 q 626 632 596 642 q 675 600 656 622 q 696 557 690 582 q 703 508 701 532 q 700 458 704 483 q 679 413 696 432 q 642 389 665 394 q 594 382 618 383 z "},".":{"ha":325,"x_min":15,"x_max":311,"o":"m 217 13 q 144 1 183 -1 q 72 24 104 4 q 44 47 57 32 q 25 79 31 61 q 19 151 15 113 q 46 217 24 189 q 94 253 64 239 q 162 266 126 265 q 229 256 197 267 q 272 228 253 246 q 300 188 292 211 q 306 127 311 160 q 286 68 301 94 q 256 35 275 49 q 217 13 238 21 z "},"/":{"ha":554,"x_min":-6,"x_max":571,"o":"m 233 -7 q 169 -29 204 -29 q 64 -1 113 -29 q 30 24 46 8 q 7 58 14 39 q -4 124 -6 89 q 6 190 -3 158 q 37 303 18 249 q 75 413 56 358 q 134 572 104 493 q 196 731 164 651 q 238 819 215 775 q 289 903 261 863 q 320 939 304 922 q 357 967 336 956 q 404 982 379 978 q 454 982 429 986 q 501 967 479 978 q 542 938 524 956 q 563 903 556 924 q 569 864 569 883 q 562 797 571 831 q 542 732 553 764 q 522 679 536 717 q 488 592 507 642 q 447 487 468 542 q 407 382 426 432 q 374 294 388 332 q 354 242 360 257 q 325 158 339 200 q 292 76 311 117 q 267 31 281 53 q 233 -7 254 8 z "},":":{"ha":343,"x_min":22,"x_max":322,"o":"m 228 421 q 155 410 194 407 q 83 432 115 413 q 55 455 68 440 q 36 488 42 469 q 31 559 26 521 q 57 625 35 597 q 106 661 75 647 q 173 674 138 674 q 240 664 208 675 q 283 637 264 654 q 311 596 303 619 q 317 535 322 568 q 297 476 313 503 q 267 443 286 457 q 228 421 249 429 m 224 13 q 151 1 190 -1 q 79 24 111 4 q 51 47 64 32 q 32 79 38 61 q 26 151 22 113 q 53 217 31 189 q 101 253 71 239 q 169 266 133 265 q 236 256 204 267 q 279 228 260 246 q 307 188 299 211 q 313 127 318 160 q 293 68 308 94 q 263 35 282 49 q 224 13 244 21 z "},";":{"ha":333,"x_min":22,"x_max":318,"o":"m 224 421 q 151 410 190 407 q 79 432 111 413 q 51 455 64 440 q 32 488 38 469 q 26 559 22 521 q 53 625 31 597 q 101 661 71 647 q 169 674 133 674 q 236 664 204 675 q 279 637 260 654 q 307 596 299 619 q 313 535 318 568 q 293 476 308 503 q 263 443 282 457 q 224 421 244 429 m 174 -153 q 156 -156 168 -154 q 129 -157 143 -157 q 102 -157 115 -157 q 83 -156 89 -157 q 53 -142 64 -154 q 41 -113 42 -129 q 49 -83 40 -97 q 76 -61 57 -68 q 111 -54 92 -56 q 147 -51 131 -53 q 170 -44 163 -49 q 169 -25 178 -39 q 130 -28 150 -25 q 89 -28 110 -31 q 40 -1 60 -24 q 26 28 29 11 q 24 63 22 46 q 47 118 28 96 q 92 151 65 140 q 151 160 119 163 q 213 143 183 158 q 256 103 239 129 q 279 47 274 76 q 278 -15 283 17 q 260 -75 274 -47 q 225 -124 247 -103 q 174 -153 203 -144 z "},"<":{"ha":718,"x_min":10,"x_max":704,"o":"m 642 94 q 595 46 624 63 q 532 28 567 29 q 468 35 500 28 q 406 51 436 42 q 315 83 360 65 q 226 121 271 100 q 148 165 186 140 q 79 222 110 190 q 44 267 60 243 q 21 319 28 292 q 13 389 10 353 q 26 457 15 425 q 67 531 40 497 q 128 589 93 565 q 269 668 194 635 q 418 731 343 701 q 484 752 450 743 q 553 763 518 761 q 608 754 581 763 q 654 726 635 746 q 687 674 676 704 q 700 613 697 644 q 693 569 704 590 q 653 522 678 542 q 601 490 629 503 q 544 467 588 483 q 451 433 501 451 q 358 397 401 414 q 301 375 315 381 q 402 360 351 368 q 501 342 453 353 q 556 326 529 335 q 606 301 583 318 q 642 260 628 285 q 660 206 656 235 q 660 149 664 178 q 642 94 656 119 z "},"=":{"ha":742,"x_min":25,"x_max":717,"o":"m 607 426 q 573 426 599 426 q 518 427 547 426 q 463 428 489 428 q 429 429 438 429 q 376 428 415 429 q 291 428 336 428 q 206 428 246 428 q 153 428 167 428 q 113 433 133 431 q 76 447 93 436 q 43 489 51 463 q 31 560 29 521 q 51 629 32 600 q 83 660 64 647 q 124 679 103 672 q 206 695 164 692 q 290 699 247 699 q 435 699 363 700 q 579 690 507 699 q 638 678 608 688 q 688 646 668 668 q 708 603 703 628 q 715 554 714 578 q 713 503 717 529 q 692 458 708 478 q 654 435 678 440 q 607 426 631 429 m 633 86 q 551 81 593 78 q 468 85 508 83 q 413 84 454 85 q 323 83 371 83 q 233 83 275 83 q 179 82 192 82 q 138 83 158 82 q 97 90 117 85 q 65 107 81 96 q 42 133 49 118 q 25 209 25 167 q 46 283 25 251 q 78 315 58 303 q 118 333 97 326 q 196 349 156 346 q 276 354 236 353 q 370 355 324 356 q 464 353 417 354 q 524 350 494 351 q 585 344 554 349 q 638 331 611 340 q 682 301 664 321 q 703 258 697 283 q 710 208 708 232 q 708 163 711 186 q 692 119 704 139 q 667 97 683 106 q 633 86 650 89 z "},">":{"ha":719,"x_min":17,"x_max":711,"o":"m 213 29 q 160 31 182 26 q 108 57 129 38 q 73 102 86 76 q 57 158 60 128 q 61 219 54 189 q 80 263 68 243 q 110 299 92 283 q 158 324 132 315 q 210 340 183 333 q 313 360 261 353 q 418 375 365 368 q 384 388 408 379 q 328 410 360 397 q 262 435 297 422 q 195 460 226 449 q 140 482 164 472 q 106 496 115 492 q 78 513 92 503 q 54 533 65 522 q 31 560 42 546 q 18 593 21 575 q 19 613 17 600 q 24 639 21 625 q 31 665 28 653 q 38 685 35 678 q 75 735 51 717 q 115 755 93 749 q 161 763 138 761 q 232 753 197 763 q 301 731 267 744 q 456 667 379 701 q 599 583 532 632 q 664 516 638 556 q 701 432 690 476 q 704 342 711 388 q 671 258 697 297 q 607 192 644 221 q 529 140 569 163 q 449 101 489 118 q 365 68 408 83 q 291 44 329 54 q 213 29 253 33 z "},"?":{"ha":556,"x_min":-1,"x_max":544,"o":"m 386 290 q 327 275 360 275 q 265 283 294 275 q 231 303 246 289 q 211 335 215 317 q 211 377 206 356 q 224 418 217 399 q 243 468 233 443 q 264 517 253 493 q 290 574 276 546 q 311 635 304 603 q 315 673 315 653 q 303 708 314 693 q 264 726 288 728 q 231 701 240 724 q 224 652 219 678 q 226 601 228 626 q 222 570 226 586 q 207 543 218 554 q 156 514 188 521 q 94 511 124 507 q 28 542 56 515 q 7 583 11 558 q 6 681 -1 629 q 27 772 11 726 q 74 851 43 817 q 125 898 96 878 q 188 925 154 918 q 203 930 190 926 q 219 933 217 933 q 256 938 238 936 q 293 940 274 939 q 426 908 363 940 q 479 874 454 894 q 519 826 504 854 q 541 760 538 796 q 538 689 544 724 q 508 602 531 643 q 472 517 486 561 q 461 471 465 494 q 453 424 457 447 q 443 377 449 400 q 428 333 438 354 q 386 290 415 306 m 318 -7 q 262 -3 290 -8 q 213 19 233 1 q 194 42 201 29 q 185 71 188 56 q 185 99 182 83 q 194 131 188 115 q 211 160 201 147 q 232 182 221 174 q 270 199 249 193 q 314 203 292 204 q 357 195 336 203 q 393 174 378 188 q 418 128 414 153 q 419 96 421 114 q 412 61 418 78 q 397 30 406 44 q 375 8 388 15 q 348 -3 363 0 q 318 -7 333 -6 z "},"@":{"ha":1064,"x_min":13,"x_max":1042,"o":"m 663 -44 q 539 -44 600 -47 q 418 -26 478 -42 q 331 -2 374 -15 q 247 33 288 11 q 124 139 174 75 q 40 306 67 213 q 19 490 13 399 q 54 634 25 564 q 132 760 83 704 q 204 823 164 796 q 289 871 244 850 q 447 921 364 906 q 614 936 531 936 q 742 925 678 936 q 863 882 807 914 q 948 812 910 854 q 1008 719 986 769 q 1035 628 1028 675 q 1040 533 1042 581 q 1032 451 1039 493 q 1007 374 1025 410 q 964 316 990 342 q 905 274 938 290 q 835 250 872 257 q 763 250 799 243 q 714 269 738 254 q 675 303 690 283 q 624 259 651 279 q 564 229 596 239 q 488 219 528 218 q 413 236 447 219 q 370 266 389 247 q 339 307 351 285 q 319 373 324 338 q 318 443 314 408 q 330 507 321 475 q 354 567 339 539 q 380 604 365 586 q 413 636 394 622 q 506 681 454 668 q 559 687 532 688 q 614 681 586 686 q 693 651 654 672 q 754 596 732 631 q 769 595 763 599 q 775 583 776 592 q 772 578 774 582 q 771 572 771 574 q 762 536 765 554 q 760 499 758 518 q 762 483 760 492 q 771 471 764 474 q 786 473 776 469 q 800 479 796 476 q 817 492 810 485 q 828 511 825 500 q 829 539 831 525 q 825 565 828 553 q 762 680 810 631 q 650 749 714 729 q 573 760 613 760 q 496 753 533 760 q 408 726 451 743 q 329 678 364 708 q 280 619 301 653 q 250 549 258 585 q 240 476 243 513 q 242 403 236 439 q 272 300 249 350 q 331 213 294 250 q 398 172 358 183 q 476 157 438 160 q 588 160 532 153 q 696 178 643 167 q 724 185 703 179 q 770 197 746 190 q 816 208 794 203 q 844 215 838 214 q 882 220 863 218 q 919 215 901 222 q 958 190 942 207 q 985 150 975 172 q 989 90 997 124 q 958 35 981 56 q 924 11 943 19 q 885 -4 904 3 q 775 -33 831 -24 q 663 -44 719 -42 m 522 388 q 549 390 536 385 q 572 403 561 396 q 621 486 613 436 q 615 533 624 510 q 583 558 607 557 q 552 551 567 560 q 526 529 538 543 q 505 499 514 515 q 492 467 496 482 q 492 417 486 442 q 522 388 499 392 z "},"A":{"ha":878,"x_min":17,"x_max":856,"o":"m 733 3 q 685 -3 713 -3 q 629 1 657 -4 q 577 15 601 6 q 539 40 553 25 q 513 96 518 65 q 506 144 506 119 q 507 192 506 168 q 431 197 469 196 q 354 194 393 199 q 360 141 358 168 q 356 88 363 114 q 341 57 351 71 q 317 32 331 43 q 280 12 300 19 q 239 1 260 4 q 164 3 203 -4 q 96 32 125 11 q 56 90 71 50 q 32 176 40 129 q 20 269 24 224 q 17 346 17 315 q 32 534 17 439 q 93 711 47 629 q 205 844 136 790 q 353 922 274 899 q 519 938 433 946 q 685 888 606 931 q 729 858 708 875 q 767 822 750 842 q 801 771 786 799 q 824 714 815 743 q 843 619 839 668 q 849 522 847 571 q 853 415 850 483 q 853 273 856 346 q 840 135 851 200 q 804 42 829 71 q 772 17 790 26 q 733 3 753 7 m 333 343 q 426 340 379 342 q 518 336 472 339 q 523 434 522 385 q 522 532 524 483 q 518 597 521 564 q 503 661 515 631 q 482 692 496 678 q 450 710 468 707 q 405 695 426 711 q 371 660 383 679 q 360 635 364 649 q 351 608 356 622 q 343 568 346 589 q 338 526 340 547 q 331 435 332 481 q 333 343 329 389 z "},"B":{"ha":897,"x_min":-12,"x_max":893,"o":"m 529 -25 q 428 -26 479 -28 q 329 -17 378 -24 q 265 1 297 -11 q 208 32 233 13 q 173 70 189 49 q 150 117 157 92 q 142 174 143 144 q 143 232 140 204 q 151 308 146 271 q 160 383 157 346 q 163 469 163 426 q 163 554 164 511 q 158 665 163 611 q 82 673 118 658 q 23 715 46 688 q -6 780 0 743 q 6 853 -12 817 q 49 901 21 882 q 108 929 78 921 q 224 949 165 946 q 340 951 282 953 q 432 947 386 949 q 524 938 478 944 q 630 909 578 931 q 725 854 682 888 q 789 786 761 826 q 825 701 817 746 q 831 629 831 665 q 819 560 831 593 q 799 515 813 536 q 769 476 786 494 q 813 447 793 464 q 851 410 833 429 q 876 367 867 390 q 888 319 885 344 q 884 222 893 271 q 853 128 875 172 q 806 65 833 92 q 751 26 782 42 q 686 0 719 10 q 609 -17 649 -11 q 529 -25 569 -22 m 371 661 q 417 599 376 618 q 500 588 457 581 q 537 599 519 590 q 566 620 554 607 q 582 650 578 633 q 579 686 586 667 q 557 719 572 706 q 522 740 542 732 q 481 749 503 747 q 439 744 460 750 q 389 714 411 738 q 371 661 367 690 m 432 188 q 502 188 465 181 q 567 214 539 194 q 601 258 590 231 q 596 311 613 286 q 560 341 582 331 q 513 354 538 351 q 461 352 488 357 q 413 338 435 347 q 384 320 397 331 q 363 296 371 310 q 353 267 354 282 q 358 238 351 253 q 390 205 369 218 q 432 188 410 192 z "},"C":{"ha":836,"x_min":8,"x_max":826,"o":"m 700 15 q 594 -12 649 -4 q 483 -22 539 -21 q 374 -15 429 -22 q 268 10 319 -8 q 192 48 228 24 q 125 101 156 72 q 77 163 97 129 q 43 235 57 197 q 15 354 22 293 q 13 478 8 415 q 36 609 18 544 q 90 728 54 674 q 160 822 122 776 q 250 892 199 867 q 410 941 325 928 q 579 939 496 954 q 672 912 626 932 q 749 857 717 892 q 792 786 776 826 q 810 706 807 746 q 799 647 811 674 q 766 601 788 621 q 715 569 744 581 q 656 556 686 557 q 579 572 615 553 q 526 607 551 588 q 468 638 500 626 q 374 633 421 653 q 307 569 332 614 q 283 507 290 540 q 272 440 275 474 q 276 381 271 411 q 296 325 281 350 q 335 289 311 303 q 386 272 360 275 q 449 276 418 269 q 508 294 479 283 q 542 308 518 299 q 595 327 567 317 q 649 346 624 338 q 683 356 674 354 q 726 353 704 360 q 774 323 754 344 q 807 272 794 301 q 823 211 819 243 q 822 150 826 179 q 810 106 819 128 q 786 68 801 85 q 746 37 768 49 q 700 15 724 25 z "},"D":{"ha":1014,"x_min":-6,"x_max":1008,"o":"m 664 4 q 541 -10 603 -8 q 417 -4 479 -11 q 322 15 369 1 q 240 60 274 28 q 194 138 208 92 q 175 229 181 183 q 171 384 165 307 q 179 540 176 461 q 121 542 150 539 q 65 558 92 546 q 36 580 50 567 q 15 608 22 593 q -2 681 1 642 q 3 760 -6 721 q 30 832 11 799 q 79 885 49 865 q 118 903 97 896 q 161 913 139 910 q 231 919 196 919 q 301 921 267 919 q 437 928 369 924 q 572 928 504 932 q 669 915 621 925 q 763 883 718 906 q 898 778 839 847 q 983 629 957 710 q 1005 472 1008 554 q 981 313 1001 389 q 925 186 963 246 q 835 83 888 126 q 754 33 799 53 q 664 4 710 14 m 440 347 q 486 314 458 325 q 545 301 514 303 q 608 307 576 300 q 665 328 640 314 q 711 367 690 343 q 736 418 732 390 q 735 453 739 435 q 724 486 732 471 q 697 515 713 503 q 664 536 682 528 q 604 558 636 551 q 540 563 572 565 q 494 551 517 560 q 456 525 471 542 q 429 485 439 508 q 417 438 419 463 q 420 390 415 414 q 440 347 425 365 z "},"E":{"ha":811,"x_min":-4,"x_max":804,"o":"m 644 -4 q 507 -25 578 -22 q 368 -17 436 -28 q 307 -5 338 -11 q 247 14 276 1 q 203 39 224 24 q 167 74 182 54 q 131 153 142 110 q 118 239 121 196 q 121 453 111 347 q 138 668 131 560 q 90 674 114 669 q 46 693 65 679 q 12 731 24 708 q -2 778 0 753 q 4 828 -4 803 q 31 875 13 854 q 77 909 50 896 q 132 928 104 922 q 194 935 153 932 q 285 940 235 938 q 393 942 336 942 q 501 943 450 943 q 592 942 551 943 q 654 938 633 940 q 701 928 678 935 q 743 907 724 922 q 776 860 767 889 q 781 781 788 824 q 747 711 774 739 q 722 693 736 700 q 693 682 708 686 q 647 676 669 676 q 600 678 624 675 q 558 682 585 679 q 500 686 531 685 q 443 686 469 688 q 404 676 417 685 q 389 658 393 669 q 385 636 385 647 q 392 615 386 625 q 410 600 399 604 q 440 598 418 597 q 486 601 461 599 q 533 604 511 603 q 564 604 556 606 q 633 550 615 597 q 639 503 640 528 q 631 457 638 479 q 616 424 625 440 q 592 400 607 408 q 566 393 583 396 q 528 390 549 390 q 490 389 508 389 q 464 389 472 389 q 429 391 450 389 q 401 382 408 393 q 398 358 397 375 q 401 333 399 342 q 409 317 404 325 q 421 303 414 308 q 458 290 433 293 q 509 288 482 288 q 563 292 536 289 q 604 299 589 296 q 666 308 635 304 q 726 303 697 311 q 770 275 750 296 q 797 231 790 254 q 804 183 804 208 q 799 133 804 158 q 781 86 793 108 q 753 47 769 64 q 703 15 732 26 q 644 -4 674 4 z "},"F":{"ha":776,"x_min":-4,"x_max":788,"o":"m 268 -3 q 226 -3 247 -6 q 185 7 204 -1 q 158 25 169 14 q 140 50 147 36 q 126 100 129 74 q 119 153 122 126 q 122 410 111 282 q 139 668 132 538 q 104 672 121 669 q 71 681 88 674 q 24 715 42 692 q 1 765 6 738 q 3 822 -4 793 q 32 875 11 851 q 75 908 50 894 q 128 926 100 921 q 203 933 149 931 q 319 938 257 936 q 435 942 381 940 q 511 943 490 943 q 597 942 554 943 q 682 933 640 942 q 733 913 708 926 q 769 878 757 900 q 784 834 781 858 q 783 785 788 810 q 769 740 779 761 q 742 704 758 718 q 697 683 722 689 q 646 676 671 678 q 594 679 629 676 q 523 685 560 682 q 453 686 486 688 q 406 676 419 685 q 387 642 388 665 q 401 606 386 619 q 434 598 411 599 q 483 599 457 597 q 533 603 508 601 q 569 604 557 606 q 628 564 608 597 q 640 514 640 542 q 633 463 640 486 q 619 427 628 444 q 593 400 610 410 q 569 393 586 396 q 533 390 551 390 q 497 389 514 389 q 471 389 479 389 q 433 391 456 389 q 403 382 410 393 q 399 363 400 376 q 399 344 399 350 q 401 269 399 307 q 407 194 404 232 q 410 142 410 168 q 403 93 410 117 q 361 26 392 53 q 317 5 342 11 q 268 -3 292 -1 z "},"G":{"ha":851,"x_min":8,"x_max":839,"o":"m 557 -18 q 411 -19 485 -25 q 268 10 338 -14 q 192 48 228 24 q 125 101 156 72 q 77 163 97 129 q 43 235 57 197 q 15 354 22 293 q 13 478 8 415 q 36 609 18 544 q 90 728 54 674 q 160 822 122 776 q 250 892 199 867 q 410 941 325 928 q 579 939 496 954 q 672 912 626 932 q 749 857 717 892 q 792 786 776 826 q 810 706 807 746 q 799 647 811 674 q 766 601 788 621 q 715 569 744 581 q 656 556 686 557 q 579 572 615 553 q 526 607 551 588 q 468 638 500 626 q 374 633 421 653 q 307 569 332 614 q 283 507 290 540 q 272 440 275 474 q 276 381 271 411 q 296 325 281 350 q 333 290 310 304 q 382 272 357 276 q 471 283 426 267 q 558 314 515 299 q 560 317 561 317 q 558 321 558 317 q 556 325 557 325 q 524 324 540 325 q 490 325 507 322 q 456 337 474 328 q 432 363 439 346 q 429 408 425 382 q 449 446 433 433 q 471 456 458 454 q 494 460 483 458 l 614 460 q 668 457 642 458 q 721 451 694 456 q 753 444 736 449 q 781 428 769 439 q 810 382 799 413 q 829 317 822 351 q 838 248 836 282 q 838 192 839 214 q 829 151 835 171 q 813 113 824 131 l 813 110 q 767 51 797 76 q 667 4 722 19 q 557 -18 613 -11 z "},"H":{"ha":1046,"x_min":1,"x_max":1043,"o":"m 989 4 q 946 -12 975 -7 q 884 -20 917 -18 q 820 -22 851 -22 q 771 -19 789 -21 q 703 -19 738 -18 q 638 -12 669 -21 q 608 -6 622 -10 q 582 8 594 -1 q 570 22 575 14 q 561 38 565 29 q 552 77 554 57 q 553 117 550 97 q 563 151 556 135 q 581 181 569 168 q 617 198 596 194 q 658 208 639 201 q 654 346 654 276 q 518 365 588 361 q 381 361 449 369 q 381 208 378 286 q 410 207 396 208 q 436 199 424 206 q 472 158 461 186 q 486 110 483 135 q 483 63 489 85 q 462 23 476 40 q 422 -1 447 6 q 324 -12 374 -14 q 225 -10 275 -11 q 163 -10 194 -10 q 103 -3 132 -10 q 74 6 88 1 q 47 18 60 10 q 29 42 36 28 q 19 71 22 56 q 17 119 15 94 q 31 167 19 144 q 48 192 38 181 q 74 206 58 203 q 99 211 79 207 q 124 218 118 215 q 119 460 117 340 q 118 701 122 579 q 86 703 103 701 q 56 713 69 706 q 28 738 39 721 q 13 772 17 754 q 18 848 1 813 q 72 903 35 883 q 122 919 96 914 q 172 928 147 925 q 277 928 225 932 q 382 921 329 924 q 435 912 408 918 q 479 886 461 906 q 497 855 490 874 q 506 816 504 836 q 505 776 508 796 q 492 742 501 756 q 445 707 476 717 q 385 694 414 697 q 385 618 385 656 q 383 543 385 581 q 424 547 403 544 q 464 551 444 549 q 560 551 513 554 q 656 536 608 547 q 655 614 656 575 q 653 692 654 653 q 617 693 635 690 q 583 707 599 696 q 544 772 550 729 q 558 849 539 814 q 607 893 575 876 q 656 909 631 904 q 707 917 682 914 q 812 918 760 922 q 917 910 864 914 q 970 902 943 908 q 1014 876 997 896 q 1032 844 1025 864 q 1041 805 1039 825 q 1040 765 1043 785 q 1026 731 1036 744 q 980 697 1011 707 q 919 683 949 686 q 917 441 921 561 q 915 199 913 321 q 949 196 932 199 q 979 185 965 193 q 1006 152 996 172 q 1018 113 1015 132 q 1017 54 1024 85 q 989 4 1010 24 z "},"I":{"ha":583,"x_min":3,"x_max":588,"o":"m 485 -4 q 369 -16 428 -18 q 253 -14 311 -14 q 167 -11 210 -12 q 83 1 124 -10 q 59 10 71 4 q 40 25 47 15 q 22 58 28 39 q 17 99 17 78 q 23 140 17 119 q 40 174 29 160 q 82 201 57 197 q 93 203 85 201 q 111 208 101 206 q 128 211 121 210 q 139 214 136 213 q 135 456 132 336 q 133 699 139 576 q 88 701 111 697 q 47 717 65 704 q 8 782 13 740 q 26 857 3 824 q 53 883 38 872 q 88 901 69 894 q 135 915 111 911 q 185 922 160 919 q 312 925 249 929 q 438 917 375 921 q 493 909 465 914 q 543 889 521 904 q 579 825 571 867 q 572 751 588 783 q 554 728 565 738 q 531 711 543 718 q 487 696 510 700 q 440 690 464 692 q 438 447 442 568 q 436 204 433 326 q 469 203 453 204 q 500 194 485 201 q 523 179 513 189 q 540 158 533 169 q 557 108 554 135 q 553 59 560 82 q 528 19 546 36 q 485 -4 511 1 z "},"J":{"ha":676,"x_min":-6,"x_max":672,"o":"m 351 -25 q 209 -24 281 -36 q 74 19 138 -11 q 22 65 40 35 q -1 130 3 94 q 6 200 -6 165 q 44 258 17 235 q 104 283 69 281 q 165 278 135 285 q 225 268 194 271 q 265 271 244 267 q 300 290 286 275 q 324 330 317 306 q 333 378 331 354 q 341 549 340 464 q 328 719 342 635 q 271 717 300 718 q 214 718 242 715 q 172 727 193 721 q 135 749 150 733 q 111 783 119 763 q 100 824 103 803 q 101 865 97 844 q 118 903 106 886 q 158 933 133 922 q 206 947 182 943 q 295 956 250 957 q 385 956 340 956 q 504 949 444 956 q 617 917 564 943 q 643 899 631 910 q 663 875 656 889 q 672 838 671 858 q 667 799 672 818 q 631 741 658 767 q 572 704 604 715 q 605 519 592 613 q 614 333 618 426 q 597 210 611 271 q 551 96 582 149 q 522 56 539 75 q 485 24 506 38 q 422 -9 456 3 q 351 -25 388 -21 z "},"K":{"ha":919,"x_min":19,"x_max":915,"o":"m 249 -31 q 190 -36 222 -36 q 127 -29 157 -36 q 72 -7 97 -22 q 35 32 47 8 q 22 74 25 51 q 21 119 19 97 q 34 217 24 168 q 51 314 44 265 q 56 360 53 326 q 61 431 58 393 q 65 501 64 468 q 67 547 67 535 q 60 613 65 568 q 50 708 54 658 q 44 802 46 758 q 51 865 43 846 q 77 896 58 882 q 119 920 96 910 q 167 938 143 931 q 208 947 190 944 q 274 944 240 951 q 336 918 308 938 q 365 886 353 906 q 383 846 376 867 q 394 785 392 817 q 394 723 396 754 q 388 660 392 692 q 381 599 383 629 q 444 694 410 647 q 519 781 479 740 q 592 845 553 815 q 675 893 631 875 q 778 908 725 915 q 819 897 799 906 q 856 872 840 888 q 884 838 872 857 q 903 797 896 818 q 910 713 915 757 q 885 633 906 669 q 857 599 874 613 q 835 585 847 590 q 813 575 824 579 q 759 564 786 567 q 704 556 732 561 q 608 522 651 547 q 576 497 590 511 q 554 463 561 482 q 556 419 547 439 q 582 384 564 400 q 623 356 600 368 q 668 335 646 343 q 726 317 696 324 q 783 299 756 310 q 817 281 800 292 q 844 256 833 271 q 875 170 872 221 q 857 81 878 119 q 801 19 836 40 q 724 -8 765 -3 q 638 -2 682 -12 q 554 32 593 8 q 441 131 489 72 q 353 256 393 190 q 355 193 354 231 q 351 117 356 156 q 338 46 347 79 q 310 -4 328 13 q 281 -21 297 -15 q 249 -31 265 -26 z "},"L":{"ha":818,"x_min":-1,"x_max":821,"o":"m 367 -12 q 297 -15 339 -14 q 210 -14 254 -17 q 127 -1 165 -11 q 71 29 89 8 q 56 59 60 42 q 53 93 51 76 q 65 144 56 119 q 88 192 74 169 q 111 265 107 225 q 114 342 115 304 q 113 385 114 356 q 110 452 111 414 q 106 533 108 490 q 100 613 103 575 q 94 681 97 651 q 90 724 92 711 q 81 736 90 731 q 67 744 72 742 q 27 774 43 754 q 5 815 11 793 q 4 858 -1 836 q 31 894 10 879 q 76 919 51 910 q 126 936 101 929 q 209 949 167 947 q 292 940 251 950 q 339 924 315 935 q 379 893 363 913 q 400 863 392 879 q 411 826 408 846 q 415 763 414 807 q 414 664 415 719 q 410 547 413 608 q 407 428 408 485 q 403 328 406 372 q 401 265 401 285 q 428 265 410 265 q 465 266 446 265 q 501 269 483 267 q 525 276 518 272 q 553 306 543 288 q 579 339 564 324 q 649 376 606 367 q 731 374 693 385 q 775 346 758 367 q 799 303 790 326 q 814 256 808 279 q 819 180 821 219 q 807 104 818 140 q 794 71 801 88 q 775 42 786 54 q 749 24 767 33 q 710 8 731 15 q 669 -3 689 1 q 638 -10 649 -8 q 590 -12 614 -12 q 542 -11 565 -11 q 454 -10 497 -10 q 367 -12 411 -10 z "},"M":{"ha":1199,"x_min":3,"x_max":1172,"o":"m 333 15 q 290 -8 317 -1 q 233 -14 263 -14 q 175 -8 204 -14 q 125 7 146 -3 q 94 31 107 15 q 82 58 86 43 q 76 88 78 72 q 76 158 72 124 q 83 229 79 193 q 106 442 96 336 q 114 656 117 547 q 113 668 114 658 q 113 681 113 678 q 78 681 96 681 q 47 689 61 681 q 30 708 38 694 q 17 739 22 722 q 8 772 11 756 q 4 800 6 789 q 9 853 3 826 q 32 900 15 879 q 65 925 44 915 q 106 938 86 935 q 166 944 136 944 q 226 942 196 943 q 316 931 271 939 q 400 899 361 922 q 440 865 422 885 q 468 822 457 846 q 515 726 494 775 q 557 628 536 676 q 605 512 582 569 q 650 394 628 454 q 713 500 682 447 q 767 608 743 553 q 789 661 772 622 q 824 744 806 700 q 858 828 842 789 q 881 881 874 868 q 902 909 890 896 q 929 929 914 922 q 967 940 943 936 q 1019 942 992 943 q 1070 938 1046 942 q 1110 928 1094 933 q 1140 904 1128 919 q 1160 869 1153 889 q 1169 788 1172 831 q 1163 706 1165 746 q 1153 501 1154 603 q 1156 297 1151 400 q 1161 206 1158 251 q 1161 115 1164 160 q 1154 72 1158 93 q 1136 32 1150 50 q 1097 3 1122 13 q 1043 -9 1072 -6 q 984 -10 1014 -12 q 932 -1 954 -7 q 903 11 917 3 q 881 33 889 19 q 867 69 871 50 q 860 107 863 88 q 851 238 851 174 q 850 369 851 303 q 819 290 835 329 q 783 211 803 250 q 755 163 772 186 q 714 125 738 139 q 652 107 686 110 q 586 107 618 104 q 562 110 574 108 q 539 118 550 113 q 494 163 518 128 q 449 240 471 199 q 408 322 426 282 q 381 385 390 363 q 378 245 381 314 q 369 106 376 176 q 359 57 367 82 q 333 15 351 32 z "},"N":{"ha":942,"x_min":-1,"x_max":915,"o":"m 299 -4 q 242 -14 271 -12 q 188 -8 214 -15 q 142 15 163 -1 q 113 57 122 31 q 106 90 107 72 q 104 124 104 107 q 106 187 104 142 q 108 292 107 232 q 112 417 110 351 q 115 542 114 483 q 117 647 117 601 q 118 711 118 693 q 78 719 99 714 q 42 736 58 725 q 10 771 18 750 q 1 804 3 785 q 1 844 -1 824 q 9 883 3 864 q 26 913 15 901 q 49 929 36 924 q 76 939 63 935 q 129 948 103 946 q 183 949 156 950 q 238 944 211 947 q 292 935 265 942 q 348 908 322 928 q 390 861 374 888 q 422 805 407 833 q 451 747 436 776 q 469 711 457 736 q 495 655 481 686 q 527 588 510 624 q 560 522 544 553 q 590 466 576 490 q 610 432 603 442 q 605 526 610 479 q 596 622 600 574 q 590 717 592 669 q 592 811 588 764 q 600 860 594 835 q 624 903 606 885 q 706 948 656 936 q 803 950 757 960 q 851 931 828 944 q 890 897 875 918 q 910 851 906 878 q 914 800 914 825 q 910 731 915 765 q 906 663 906 697 q 906 504 907 583 q 900 346 904 425 q 891 226 896 286 q 875 107 886 167 q 865 67 871 88 q 843 31 858 46 q 799 6 826 14 q 742 -3 772 -3 q 683 3 713 -3 q 632 18 654 8 q 594 44 611 28 q 563 79 576 60 q 535 120 547 99 q 511 163 522 142 q 441 293 475 228 q 367 422 407 358 q 371 367 368 407 q 376 281 374 326 q 381 194 379 235 q 383 140 383 154 q 378 90 382 115 q 363 44 375 65 q 335 15 351 26 q 299 -4 318 3 z "},"O":{"ha":899,"x_min":8,"x_max":886,"o":"m 560 -18 q 279 3 415 -43 q 192 43 233 18 q 119 104 151 68 q 65 184 88 140 q 31 274 43 228 q 12 396 15 333 q 18 519 8 458 q 72 698 32 611 q 178 849 111 785 q 250 901 210 879 q 333 933 290 922 q 422 947 376 944 q 511 944 467 950 q 625 913 569 938 q 728 853 681 889 q 796 783 769 822 q 842 697 824 743 q 872 604 861 651 q 886 473 886 539 q 875 343 886 407 q 826 198 860 268 q 740 75 793 128 q 657 15 704 39 q 560 -18 610 -10 m 404 260 q 481 267 443 251 q 536 302 511 279 q 581 353 561 325 q 629 474 617 406 q 626 606 642 543 q 607 657 619 632 q 574 701 594 682 q 524 728 551 721 q 467 731 496 735 q 411 713 439 726 q 363 678 383 699 q 331 637 344 660 q 307 590 318 614 q 283 499 289 547 q 285 404 276 450 q 297 360 289 382 q 319 319 306 339 q 356 283 335 299 q 404 260 378 267 z "},"P":{"ha":832,"x_min":-1,"x_max":835,"o":"m 304 -14 q 256 -19 283 -18 q 201 -15 228 -19 q 151 -1 174 -11 q 117 28 128 10 q 105 61 107 43 q 103 97 103 79 q 105 170 101 133 q 110 243 108 207 q 113 474 113 358 q 110 704 113 589 q 85 708 99 708 q 61 711 72 707 q 34 726 46 715 q 15 753 22 738 q 2 796 6 772 q 1 842 -1 819 q 13 885 3 865 q 39 918 22 906 q 92 942 63 936 q 151 949 122 947 q 348 951 250 954 q 543 935 446 947 q 642 913 593 928 q 732 868 692 899 q 801 774 781 831 q 829 650 824 715 q 819 524 835 585 q 796 460 811 492 q 758 404 781 429 q 674 346 721 364 q 533 308 607 318 q 386 304 460 299 q 388 238 386 279 q 390 151 390 196 q 383 68 389 107 q 360 11 376 29 q 334 -6 349 0 q 304 -14 319 -11 m 382 593 q 412 546 392 565 q 456 518 432 526 q 506 516 481 510 q 547 546 531 522 q 568 611 567 574 q 554 679 569 649 q 533 713 547 697 q 501 736 519 728 q 449 747 476 750 q 406 729 424 744 q 381 692 389 714 q 373 644 372 669 q 382 593 374 618 z "},"Q":{"ha":901,"x_min":8,"x_max":886,"o":"m 782 -150 q 725 -160 756 -161 q 668 -147 694 -160 q 636 -123 650 -137 q 610 -93 622 -108 q 583 -56 596 -75 q 560 -18 571 -37 q 417 -26 489 -31 q 279 3 346 -21 q 192 43 233 18 q 119 104 151 68 q 65 184 88 140 q 31 274 43 228 q 12 396 15 333 q 18 519 8 458 q 72 698 32 611 q 178 849 111 785 q 250 901 210 879 q 333 933 290 922 q 422 947 376 944 q 511 944 467 950 q 625 913 569 938 q 728 853 681 889 q 796 783 769 822 q 842 697 824 743 q 872 604 861 651 q 886 473 886 539 q 875 343 886 407 q 836 218 863 279 q 769 106 810 157 q 809 78 789 92 q 846 46 829 64 q 862 23 856 35 q 869 -3 868 11 q 867 -48 872 -25 q 849 -90 861 -71 q 820 -126 838 -110 q 782 -150 803 -142 m 346 290 q 393 264 365 272 q 447 258 421 256 q 438 291 440 274 q 440 325 435 308 q 473 360 447 351 q 522 357 499 369 q 542 342 533 350 q 558 322 550 333 q 613 415 593 363 q 635 521 632 468 q 629 594 636 557 q 604 663 622 631 q 576 699 593 682 q 539 724 558 715 q 474 732 507 736 q 413 715 442 729 q 363 678 385 700 q 331 637 344 660 q 307 590 318 614 q 282 489 288 543 q 290 385 276 435 q 311 334 297 358 q 346 290 325 310 z "},"R":{"ha":853,"x_min":-1,"x_max":836,"o":"m 304 -14 q 256 -19 283 -18 q 201 -15 228 -19 q 151 -1 174 -11 q 117 28 128 10 q 105 61 107 43 q 103 97 103 79 q 105 170 101 133 q 110 243 108 207 q 113 474 113 358 q 110 704 113 589 q 85 708 99 708 q 61 711 72 707 q 34 726 46 715 q 15 753 22 738 q 2 796 6 772 q 1 842 -1 819 q 13 885 3 865 q 39 918 22 906 q 92 942 63 936 q 151 949 122 947 q 348 951 250 954 q 543 935 446 947 q 642 913 593 928 q 732 868 692 899 q 801 774 781 831 q 829 650 824 715 q 819 524 835 585 q 789 449 808 485 q 740 386 769 414 q 682 349 714 363 q 617 325 650 335 q 629 299 621 317 q 647 263 638 282 q 667 229 657 244 q 686 210 678 214 q 712 201 699 203 q 738 199 725 199 q 765 198 751 199 q 792 193 779 197 q 817 175 807 188 q 832 147 828 163 q 836 109 836 131 q 831 67 836 88 q 814 30 825 47 q 788 4 803 13 q 741 -10 769 -6 q 682 -13 713 -14 q 623 -7 651 -12 q 576 8 594 -1 q 548 28 561 15 q 524 56 535 40 q 455 178 483 114 q 386 301 426 243 q 388 236 386 278 q 390 151 390 194 q 383 68 389 107 q 360 11 376 29 q 334 -6 349 0 q 304 -14 319 -11 m 382 593 q 412 546 392 565 q 456 518 432 526 q 506 516 481 510 q 547 546 531 522 q 568 611 567 574 q 554 679 569 649 q 533 713 547 697 q 501 736 519 728 q 449 747 476 750 q 406 729 424 744 q 381 692 389 714 q 373 644 372 669 q 382 593 374 618 z "},"S":{"ha":706,"x_min":13,"x_max":693,"o":"m 414 0 q 342 -2 390 0 q 240 -3 293 -4 q 139 1 186 -3 q 71 17 92 6 q 46 41 56 25 q 32 74 36 57 q 26 113 26 92 q 31 156 26 135 q 47 194 36 176 q 74 221 57 211 q 105 231 89 228 q 136 233 121 233 q 213 229 175 235 q 290 224 251 224 q 318 224 304 224 q 343 231 332 225 q 370 263 365 240 q 365 307 375 285 q 351 327 360 318 q 332 343 342 336 q 269 378 303 365 q 201 407 235 392 q 132 449 165 425 q 72 503 99 472 q 41 556 53 526 q 22 617 29 586 q 16 708 13 661 q 38 797 19 754 q 65 848 49 824 q 104 889 81 872 q 168 919 133 908 q 238 933 203 929 q 351 938 294 940 q 463 925 407 935 q 518 917 490 921 q 574 907 546 914 q 663 850 625 892 q 678 831 671 840 q 688 810 685 821 q 691 760 693 786 q 679 712 689 735 q 653 671 669 689 q 615 644 638 653 q 576 638 596 638 q 536 643 556 639 q 457 667 496 651 q 376 690 418 683 q 340 694 358 693 q 306 688 321 694 q 278 658 285 678 q 286 618 272 638 q 307 600 296 606 q 325 591 311 597 q 354 578 339 585 q 383 565 369 571 q 401 557 397 558 q 492 515 447 538 q 578 465 538 493 q 631 417 606 444 q 667 356 656 389 q 682 283 678 321 q 681 210 686 246 q 636 103 669 151 q 603 67 622 83 q 563 39 585 51 q 414 0 493 3 z "},"T":{"ha":664,"x_min":-8,"x_max":676,"o":"m 478 65 q 444 24 467 40 q 392 0 421 8 q 333 -10 364 -8 q 276 -7 303 -11 q 227 8 251 -1 q 185 35 203 17 q 157 86 164 56 q 153 128 154 99 q 153 192 153 158 q 155 257 154 226 q 156 300 156 288 q 164 480 160 390 q 175 661 168 569 q 120 663 147 661 q 67 675 93 665 q 36 692 51 682 q 13 717 21 701 q -4 763 0 738 q -6 815 -8 789 q 8 863 -3 840 q 38 901 18 886 q 94 928 63 921 q 156 940 125 936 q 291 946 224 949 q 425 940 358 943 q 492 939 458 939 q 558 933 526 939 q 614 917 586 929 q 657 882 642 906 q 675 808 676 850 q 654 733 674 765 q 594 682 633 700 q 532 668 564 671 q 468 665 500 665 q 469 522 468 593 q 475 379 471 451 q 488 245 479 313 q 488 110 496 178 q 478 65 485 83 z "},"U":{"ha":876,"x_min":22,"x_max":864,"o":"m 550 22 q 389 -3 472 -6 q 229 31 306 -1 q 175 59 201 43 q 126 97 149 75 q 84 153 101 122 q 56 219 67 185 q 35 316 40 267 q 29 414 31 365 q 24 599 26 507 q 35 783 22 692 q 44 835 38 810 q 64 882 50 860 q 103 918 78 906 q 153 936 128 931 q 274 932 214 947 q 307 920 290 928 q 336 900 324 913 q 368 832 361 872 q 373 774 374 804 q 369 717 372 744 q 365 665 368 704 q 359 582 363 626 q 352 499 356 538 q 349 447 349 460 q 352 391 347 419 q 374 340 357 363 q 410 316 389 322 q 452 314 431 310 q 492 332 474 318 q 522 367 511 346 q 546 441 542 401 q 550 519 550 481 q 538 642 549 582 q 521 763 528 701 q 518 810 518 786 q 525 856 518 833 q 563 906 536 886 q 615 928 585 921 q 676 935 644 936 q 737 926 707 935 q 788 901 767 918 q 819 853 810 883 q 846 759 836 807 q 860 663 856 711 q 860 539 864 600 q 847 417 856 478 q 823 312 840 364 q 778 214 806 260 q 681 98 740 149 q 550 22 621 47 z "},"V":{"ha":844,"x_min":3,"x_max":843,"o":"m 481 4 q 425 -5 454 -4 q 368 -1 396 -6 q 283 29 324 7 q 213 83 243 51 q 151 176 175 124 q 110 281 128 228 q 61 467 78 372 q 29 657 44 561 q 21 697 26 671 q 10 753 15 724 q 4 808 6 782 q 7 847 3 835 q 38 886 17 871 q 82 911 60 901 q 168 932 122 926 q 254 922 214 938 q 290 901 274 915 q 314 868 307 888 q 326 813 318 853 q 342 726 333 772 q 356 638 350 679 q 365 582 363 597 q 375 521 368 563 q 390 434 382 479 q 408 349 399 389 q 429 294 418 310 q 467 390 454 339 q 492 492 481 440 q 521 658 508 575 q 553 825 533 742 q 618 908 567 881 q 678 919 646 922 q 739 906 710 917 q 786 885 763 897 q 825 850 810 872 q 839 817 836 835 q 842 781 842 799 q 839 725 843 753 q 829 669 835 697 q 793 529 815 599 q 747 390 771 460 q 683 231 719 310 q 592 85 646 151 q 541 37 569 58 q 481 4 513 15 z "},"W":{"ha":1207,"x_min":18,"x_max":1194,"o":"m 422 11 q 376 -10 403 -6 q 322 -15 349 -14 q 244 -10 283 -15 q 168 7 204 -6 q 106 53 129 19 q 83 99 90 74 q 71 149 75 124 q 63 225 67 171 q 54 350 58 279 q 46 500 50 421 q 38 650 42 579 q 30 776 33 721 q 24 853 26 831 q 19 876 21 864 q 21 901 18 889 q 28 915 24 908 q 40 925 33 921 q 63 935 51 932 q 85 942 74 939 q 127 949 106 947 q 171 951 149 950 q 232 953 201 953 q 290 942 263 953 q 315 927 303 936 q 333 907 326 918 q 349 866 344 888 q 357 822 354 844 q 361 751 358 804 q 366 635 364 697 q 370 520 368 574 q 374 449 372 467 q 403 538 388 493 q 438 625 418 582 q 463 674 449 650 q 499 715 476 699 q 534 733 514 728 q 575 740 554 739 q 626 739 600 742 q 675 726 651 736 q 722 690 703 714 q 754 639 742 667 q 788 542 775 592 q 814 443 801 493 q 824 492 817 458 q 838 569 831 526 q 856 660 846 613 q 874 750 865 707 q 892 826 883 793 q 907 874 900 858 q 940 915 918 901 q 969 928 954 924 q 1000 935 985 932 q 1100 935 1050 939 q 1133 928 1117 932 q 1163 914 1150 925 q 1180 892 1174 906 q 1189 865 1186 879 q 1194 806 1194 836 q 1192 746 1194 776 q 1180 650 1188 697 q 1167 554 1172 603 q 1138 348 1153 450 q 1099 144 1122 246 q 1079 82 1092 113 q 1043 31 1067 51 q 984 -1 1018 8 q 917 -12 950 -10 q 885 -15 901 -15 q 854 -14 869 -14 q 781 -8 818 -14 q 714 19 744 -1 q 667 69 686 39 q 636 131 649 99 q 597 240 614 185 q 560 351 579 296 q 538 274 553 324 q 505 171 524 224 q 465 73 486 118 q 422 11 443 28 z "},"X":{"ha":836,"x_min":8,"x_max":828,"o":"m 650 -1 q 615 -10 633 -7 q 579 -7 596 -12 q 555 5 565 -4 q 535 25 544 14 q 510 56 528 33 q 474 106 493 79 q 440 156 456 132 q 418 189 424 181 q 389 146 408 175 q 348 85 369 117 q 304 28 326 54 q 267 -4 282 3 q 226 -10 249 -12 q 165 6 194 -7 q 110 35 136 18 q 58 72 82 51 q 19 119 33 92 q 11 160 10 139 q 21 201 13 182 q 55 263 35 233 q 96 321 75 293 q 118 350 101 328 q 155 397 135 372 q 192 444 175 422 q 214 474 208 467 q 123 588 168 532 q 42 708 78 644 q 18 762 28 733 q 13 818 8 790 q 24 850 15 835 q 46 876 33 865 q 94 915 68 897 q 146 947 119 932 q 184 966 164 958 q 224 971 204 974 q 266 958 246 969 q 301 932 286 947 q 364 852 338 896 q 418 764 390 808 q 455 824 436 794 q 493 882 474 854 q 525 922 508 903 q 563 954 542 940 q 621 972 589 972 q 664 960 643 971 q 713 933 690 949 q 760 901 736 917 q 789 877 775 890 q 813 849 803 864 q 825 804 825 828 q 817 760 824 782 q 799 719 810 739 q 717 592 764 651 q 622 474 669 533 q 652 434 629 464 q 701 371 675 404 q 749 307 726 338 q 779 267 772 276 q 807 221 794 244 q 824 171 819 197 q 817 121 828 146 q 795 90 808 104 q 767 63 782 75 q 650 -1 713 19 z "},"Y":{"ha":892,"x_min":-11,"x_max":901,"o":"m 600 35 q 560 6 586 17 q 505 -8 535 -4 q 444 -10 475 -11 q 392 -3 414 -8 q 345 19 368 4 q 310 56 322 33 q 297 103 299 78 q 297 151 294 128 q 315 275 304 214 q 325 399 325 336 q 283 476 304 436 q 238 553 261 515 q 187 624 214 590 q 126 686 160 658 q 81 713 106 703 q 33 738 57 724 q 6 764 17 746 q -11 828 -11 792 q 6 893 -11 865 q 21 911 13 903 q 40 924 29 919 q 103 941 69 939 q 169 944 136 943 q 234 944 201 946 q 294 928 267 943 q 325 903 311 918 q 350 872 339 888 q 424 756 389 815 q 490 636 458 697 q 518 689 499 650 q 560 772 538 728 q 605 856 583 817 q 636 907 626 894 q 690 947 656 933 q 756 957 724 960 q 810 945 783 956 q 857 917 836 935 q 890 876 878 900 q 900 825 901 853 q 876 748 899 796 q 824 649 854 700 q 765 553 794 599 q 718 485 735 507 q 676 431 697 457 q 631 382 656 406 q 633 259 632 319 q 626 136 633 199 q 622 99 624 117 q 613 63 619 81 q 600 35 608 47 z "},"Z":{"ha":788,"x_min":18,"x_max":779,"o":"m 681 -11 q 628 -12 654 -14 q 574 -7 601 -10 q 409 -3 490 0 q 244 -8 328 -6 q 184 -9 214 -10 q 125 -1 154 -8 q 92 10 108 3 q 65 31 76 18 q 40 88 44 53 q 39 151 38 119 q 50 211 40 182 q 74 257 60 239 q 95 279 79 264 q 132 314 111 294 q 176 355 153 333 q 219 396 199 376 q 256 431 240 415 q 278 453 272 446 q 380 580 332 514 q 472 714 428 646 q 451 714 467 714 q 419 715 436 714 q 388 715 403 715 q 367 715 372 715 q 335 713 356 714 q 307 704 314 713 q 301 690 303 700 q 299 668 300 679 q 298 646 299 657 q 297 629 297 635 q 291 576 296 603 q 271 528 286 550 q 228 494 254 506 q 175 479 203 482 q 101 492 139 476 q 44 536 64 507 q 22 599 25 564 q 21 667 18 633 q 23 707 21 678 q 27 769 25 736 q 31 833 29 803 q 31 874 32 863 q 39 904 28 892 q 79 923 51 917 q 139 931 107 929 q 202 934 171 933 q 251 936 233 935 q 455 942 353 943 q 657 924 557 942 q 700 910 679 919 q 735 882 721 900 q 751 852 746 869 q 758 818 756 835 q 757 761 761 790 q 743 704 753 732 q 699 625 728 661 q 638 554 669 589 q 534 424 582 492 q 443 285 486 357 q 501 287 461 285 q 585 290 542 289 q 668 288 629 290 q 724 278 707 286 q 760 240 749 265 q 776 183 772 214 q 775 119 779 151 q 764 61 771 88 q 726 6 756 25 q 705 -5 717 -1 q 681 -11 693 -8 z "},"[":{"ha":475,"x_min":31,"x_max":463,"o":"m 342 -19 q 249 -18 296 -19 q 157 -15 203 -17 q 111 -3 132 -15 q 82 36 90 11 q 76 65 79 44 q 71 108 74 85 q 66 152 68 132 q 64 181 64 172 q 60 263 60 222 q 60 346 61 304 q 51 513 57 429 q 38 642 46 578 q 32 771 31 706 q 39 832 33 801 q 60 888 44 863 q 91 917 71 906 q 131 932 111 928 q 224 944 178 940 q 318 943 271 949 q 371 933 344 940 q 417 906 397 925 q 441 861 435 888 q 444 811 447 835 q 442 792 444 803 q 436 770 440 781 q 426 751 432 760 q 414 740 421 743 q 396 736 410 738 q 367 733 382 735 q 339 728 353 731 q 321 724 325 726 q 311 701 314 718 q 307 675 308 683 q 306 628 306 660 q 306 558 306 597 q 308 474 307 518 q 310 390 308 429 q 313 318 311 350 q 315 272 314 286 q 327 241 317 260 q 349 217 338 222 q 372 210 360 213 q 395 207 383 208 q 418 203 407 206 q 438 193 429 200 q 457 160 451 181 q 463 115 463 139 q 458 66 463 90 q 449 25 454 42 q 439 8 446 15 q 425 -6 432 0 q 384 -18 406 -17 q 342 -19 363 -19 z "},"\\":{"ha":554,"x_min":-18,"x_max":561,"o":"m 451 -18 q 404 -28 428 -25 q 358 -25 381 -32 q 322 -6 339 -19 q 293 24 304 7 q 231 153 253 85 q 183 290 208 222 q 164 340 178 304 q 132 424 150 376 q 94 522 114 471 q 56 621 74 574 q 24 703 38 668 q 6 754 10 739 q -12 818 -6 786 q -14 882 -18 850 q 25 949 -7 924 q 88 978 53 968 q 158 982 124 989 q 218 953 190 975 q 265 903 246 931 q 353 745 318 829 q 421 575 389 661 q 487 395 454 485 q 544 214 519 306 q 557 151 553 182 q 556 88 561 119 q 544 49 553 68 q 521 18 536 31 q 488 -3 506 6 q 451 -18 471 -11 z "},"]":{"ha":476,"x_min":14,"x_max":447,"o":"m 318 -15 q 269 -17 304 -15 q 197 -19 235 -18 q 124 -20 158 -21 q 75 -15 89 -19 q 53 -6 64 -12 q 36 10 43 0 q 26 33 31 17 q 19 66 22 49 q 15 100 15 83 q 14 126 14 117 q 21 165 15 146 q 42 194 26 183 q 81 208 58 207 q 124 215 104 208 q 149 237 140 219 q 162 276 158 254 q 166 322 165 299 q 167 364 167 346 q 168 399 167 375 q 169 455 169 424 q 170 522 169 486 q 171 588 171 557 q 170 644 171 619 q 168 681 169 669 q 165 704 168 689 q 154 724 161 719 q 137 728 150 726 q 109 733 124 731 q 81 736 94 735 q 63 740 67 738 q 44 763 51 744 q 35 792 38 781 q 33 849 29 819 q 54 899 36 878 q 101 931 72 921 q 157 943 129 940 q 249 944 203 949 q 340 932 296 940 q 399 907 374 928 q 417 885 410 897 q 431 860 425 874 q 444 771 444 819 q 439 642 447 706 q 426 513 431 578 q 421 429 424 471 q 417 346 418 388 q 416 264 415 306 q 414 182 417 222 q 410 153 413 174 q 406 108 408 132 q 400 65 403 85 q 394 36 397 44 q 365 -3 389 14 q 318 -15 344 -15 z "},"^":{"ha":700,"x_min":13,"x_max":688,"o":"m 215 375 q 178 365 200 367 q 132 367 156 363 q 86 378 108 371 q 50 396 64 386 q 34 408 42 401 q 22 425 26 415 q 14 452 15 438 q 15 482 13 467 q 34 554 21 519 q 63 624 47 589 q 88 679 69 639 q 128 764 107 719 q 169 848 150 808 q 199 901 189 888 q 242 933 214 924 q 299 946 271 942 q 384 947 339 953 q 461 913 429 940 q 522 846 496 883 q 571 768 547 808 q 630 664 600 715 q 676 554 660 613 q 685 506 683 531 q 681 458 688 482 q 654 415 674 433 q 609 386 635 397 q 555 370 583 375 q 501 368 526 365 q 465 380 483 371 q 436 404 447 389 q 418 444 425 424 q 404 488 411 465 q 375 598 389 543 q 343 708 361 653 q 326 654 339 694 q 300 568 314 614 q 274 482 286 522 q 256 429 261 442 q 240 399 249 414 q 215 375 231 385 z "},"_":{"ha":643,"x_min":-101,"x_max":732,"o":"m 636 -246 q 559 -251 597 -253 q 482 -249 521 -250 q 284 -249 382 -246 q 86 -250 186 -251 q 36 -249 61 -250 q -12 -242 11 -247 q -62 -218 -42 -235 q -85 -190 -78 -207 q -96 -154 -93 -172 q -97 -101 -101 -129 q -78 -51 -93 -74 q -37 -17 -62 -29 q 13 1 -12 -6 q 131 19 71 17 q 250 22 190 22 q 415 22 333 22 q 578 13 496 21 q 634 1 606 10 q 686 -24 663 -7 q 718 -64 707 -40 q 728 -154 732 -107 q 721 -185 725 -169 q 707 -212 717 -200 q 676 -235 696 -228 q 636 -246 656 -243 z "},"a":{"ha":781,"x_min":4,"x_max":782,"o":"m 722 1 q 674 -8 699 -7 q 625 -10 650 -10 q 569 -8 597 -10 q 513 0 540 -6 q 463 14 483 4 q 408 58 429 26 q 327 22 368 39 q 242 -3 286 4 q 163 -4 203 -8 q 88 17 124 0 q 63 32 74 22 q 42 53 51 42 q 21 93 28 71 q 11 138 14 115 q 24 254 4 196 q 82 356 43 313 q 135 399 104 381 q 197 425 165 417 q 288 435 242 436 q 379 428 335 435 q 383 465 381 442 q 375 496 385 488 q 359 501 369 500 q 337 503 349 503 q 314 502 325 503 q 297 501 303 501 q 238 497 267 499 q 178 496 208 496 q 156 497 169 496 q 129 499 143 497 q 103 503 115 500 q 85 511 90 506 q 72 535 76 519 q 65 568 67 550 q 63 604 63 586 q 65 633 63 622 q 74 669 68 651 q 96 700 81 688 q 152 723 114 715 q 233 734 190 731 q 317 737 276 738 q 382 735 358 736 q 483 724 432 732 q 578 694 533 717 q 614 672 597 685 q 640 640 631 658 q 651 579 656 614 q 634 415 640 497 q 639 250 628 332 q 643 233 640 243 q 653 221 646 224 q 692 215 672 214 q 732 210 713 215 q 761 188 751 203 q 776 153 771 174 q 781 112 781 133 q 778 70 782 90 q 765 36 774 50 q 722 1 751 13 m 265 178 q 308 182 286 176 q 348 199 329 188 q 379 228 367 211 q 396 265 392 244 q 396 281 397 272 q 389 297 394 290 q 376 306 383 303 q 361 311 368 308 q 319 314 340 317 q 278 301 297 311 q 244 276 260 292 q 222 240 229 261 q 219 217 219 229 q 225 196 218 206 q 243 183 232 188 q 265 178 254 179 z "},"b":{"ha":786,"x_min":-1,"x_max":782,"o":"m 306 3 q 276 -6 292 -4 q 244 -8 260 -8 q 156 3 203 -8 q 133 14 144 7 q 115 32 122 21 q 101 67 104 47 q 99 104 99 86 q 110 218 99 163 q 124 331 121 274 q 117 510 126 421 q 99 688 108 599 q 67 696 83 692 q 38 711 50 700 q 10 749 19 726 q 0 797 1 772 q 6 846 -1 822 q 31 886 14 869 q 77 915 50 906 q 131 928 104 924 q 225 935 176 936 q 318 915 274 933 q 333 909 325 913 q 347 899 340 906 q 372 849 365 883 q 378 776 378 815 q 374 700 378 738 q 369 639 371 663 q 456 663 410 657 q 547 657 503 668 q 630 621 592 646 q 696 560 668 596 q 749 463 731 517 q 775 356 768 410 q 779 259 782 307 q 763 165 776 211 q 740 107 754 135 q 704 57 726 79 q 656 20 683 35 q 599 -1 628 6 q 533 -6 567 -8 q 467 5 500 -4 q 405 30 435 14 q 353 69 375 46 q 334 32 344 50 q 306 3 324 14 m 378 286 q 394 256 383 271 q 417 229 404 242 q 444 210 429 217 q 474 206 458 203 q 524 244 506 211 q 543 308 542 276 q 535 387 546 347 q 497 454 525 426 q 469 476 486 467 q 433 482 451 485 q 401 466 415 481 q 381 435 388 451 q 365 360 365 400 q 378 286 364 321 z "},"c":{"ha":665,"x_min":10,"x_max":656,"o":"m 522 10 q 393 -10 460 -6 q 263 -3 326 -14 q 183 16 222 4 q 113 51 144 28 q 42 140 65 85 q 11 292 10 211 q 35 447 13 372 q 89 568 53 515 q 117 597 101 585 q 151 619 133 610 q 219 652 185 638 q 292 672 254 667 q 330 679 311 675 q 368 685 349 683 q 431 682 394 686 q 506 669 468 678 q 574 644 543 660 q 619 607 606 629 q 632 561 632 586 q 626 521 632 543 q 609 477 619 499 q 584 438 599 456 q 553 413 569 421 q 524 404 539 406 q 494 406 510 403 q 451 417 472 410 q 408 431 431 425 q 382 436 396 435 q 356 433 368 438 q 316 399 329 426 q 306 343 303 371 q 313 315 308 329 q 329 290 318 300 q 350 283 336 283 q 379 283 364 282 q 409 288 394 285 q 432 293 424 290 q 494 306 464 300 q 556 310 524 313 q 594 301 575 308 q 626 279 614 294 q 640 255 635 268 q 647 228 644 242 q 653 183 651 206 q 653 138 656 161 q 644 99 651 118 q 625 67 638 81 q 578 31 606 44 q 522 10 550 17 z "},"d":{"ha":786,"x_min":4,"x_max":788,"o":"m 629 3 q 592 -4 614 -1 q 547 -8 569 -7 q 503 -5 524 -8 q 472 10 483 -1 q 450 37 458 21 q 435 69 442 53 q 379 29 411 46 q 313 3 347 13 q 243 -6 279 -6 q 175 3 207 -6 q 115 30 143 11 q 67 75 86 49 q 36 129 47 100 q 18 189 25 158 q 7 307 4 247 q 25 425 10 367 q 51 495 36 461 q 90 558 67 529 q 156 620 118 594 q 239 657 194 646 q 331 663 283 668 q 418 639 378 657 q 410 731 415 685 q 410 822 406 776 q 417 862 413 842 q 436 896 422 882 q 484 922 453 913 q 551 933 515 931 q 621 932 586 935 q 679 924 656 929 q 718 910 699 918 q 753 889 738 903 q 779 848 771 872 q 787 797 788 824 q 776 747 786 771 q 746 708 765 724 q 718 695 733 699 q 688 688 703 692 q 673 542 681 614 q 663 397 665 471 q 662 339 661 368 q 667 282 663 310 q 682 189 674 235 q 688 96 690 143 q 682 59 686 78 q 667 25 678 40 q 650 11 660 17 q 629 3 640 6 m 243 314 q 249 276 243 294 q 264 241 254 257 q 288 215 274 225 q 321 206 301 206 q 362 222 343 206 q 393 257 381 238 q 420 331 415 289 q 415 411 425 374 q 395 454 408 433 q 360 482 382 475 q 316 474 338 488 q 281 443 294 461 q 251 382 260 417 q 243 314 242 347 z "},"e":{"ha":654,"x_min":6,"x_max":647,"o":"m 542 6 q 460 -19 503 -12 q 374 -25 417 -25 q 279 -16 326 -24 q 189 11 232 -8 q 125 51 154 26 q 74 107 96 76 q 27 192 44 146 q 8 288 10 239 q 30 419 6 354 q 92 539 54 485 q 197 631 135 599 q 325 665 258 663 q 456 640 392 667 q 565 554 519 613 q 601 495 586 528 q 619 428 617 463 q 615 379 621 404 q 597 333 610 354 q 558 296 582 308 q 523 287 542 289 q 485 286 504 285 q 430 293 457 289 q 375 300 403 297 q 355 301 367 300 q 331 301 343 301 q 307 297 318 300 q 292 289 296 294 q 286 267 285 281 q 294 243 288 253 q 322 224 304 231 q 358 217 339 218 q 398 217 378 215 q 433 222 418 218 q 497 241 465 229 q 561 247 529 253 q 608 226 589 243 q 638 185 628 208 q 646 133 647 161 q 631 81 644 106 q 593 37 617 56 q 542 6 569 18 m 376 378 q 408 374 392 375 q 440 376 425 374 q 472 405 464 383 q 467 446 481 426 q 435 474 457 464 q 390 486 414 485 q 343 482 367 488 q 308 466 325 478 q 285 438 292 454 q 290 411 279 422 q 315 394 301 400 q 376 378 344 382 z "},"f":{"ha":613,"x_min":15,"x_max":611,"o":"m 349 -94 q 314 -122 336 -110 q 265 -142 292 -135 q 213 -151 239 -149 q 167 -150 186 -154 q 101 -127 133 -143 q 51 -83 69 -111 q 31 -31 36 -60 q 22 26 25 -1 q 16 124 17 75 q 18 222 15 174 q 23 326 19 275 q 33 429 26 378 q 54 533 40 482 q 93 628 68 583 q 128 681 108 656 q 174 726 149 707 q 243 759 206 750 q 318 771 281 768 q 438 768 378 776 q 551 733 499 760 q 590 701 576 722 q 607 653 603 679 q 606 600 611 628 q 592 547 601 572 q 579 524 586 536 q 561 506 572 513 q 506 493 538 489 q 465 501 485 494 q 424 511 444 507 q 395 513 410 514 q 369 506 381 513 q 356 488 361 500 q 349 463 351 476 q 347 434 347 449 q 346 410 346 419 q 381 414 358 411 q 426 418 403 417 q 472 418 450 419 q 504 411 493 417 q 532 379 524 400 q 543 338 540 358 q 544 309 544 326 q 542 274 544 292 q 533 242 539 257 q 519 219 528 226 q 492 203 507 208 q 461 194 476 197 q 413 191 438 190 q 364 194 388 192 q 371 97 367 146 q 372 0 375 49 q 367 -49 371 -24 q 349 -94 364 -75 z "},"g":{"ha":774,"x_min":1,"x_max":760,"o":"m 339 -310 q 256 -306 297 -312 q 175 -282 214 -299 q 130 -254 151 -271 q 94 -214 108 -237 q 74 -140 74 -182 q 93 -65 74 -99 q 143 -21 111 -33 q 180 -11 161 -12 q 218 -11 199 -10 q 278 -17 249 -14 q 339 -17 308 -21 q 381 -7 360 -14 q 415 17 403 0 q 427 47 426 29 q 424 81 428 65 q 331 51 381 57 q 233 49 282 46 q 195 52 214 49 q 158 63 176 56 q 69 128 104 82 q 28 203 42 161 q 10 286 14 244 q 44 489 1 392 q 92 564 64 529 q 157 626 121 599 q 288 692 215 671 q 435 707 360 713 q 571 669 507 700 q 694 554 647 629 q 737 457 722 510 q 754 351 751 404 q 759 197 760 274 q 743 44 758 119 q 708 -78 732 -18 q 644 -186 685 -137 q 544 -265 603 -237 q 444 -298 496 -289 q 339 -310 392 -307 m 300 294 q 323 269 308 279 q 354 257 338 260 q 388 258 371 254 q 419 272 406 261 q 449 314 439 288 q 463 365 458 340 q 463 417 465 390 q 446 464 461 444 q 389 489 424 493 q 331 457 354 485 q 302 404 311 433 q 292 346 293 375 q 292 319 292 332 q 300 294 293 306 z "},"h":{"ha":896,"x_min":6,"x_max":885,"o":"m 821 7 q 778 -18 806 -10 q 721 -27 751 -26 q 660 -24 690 -28 q 610 -11 631 -19 q 589 -3 599 -8 q 572 13 579 3 q 557 51 560 28 q 557 106 556 65 q 561 190 558 146 q 567 274 564 235 q 569 328 569 314 q 569 372 571 346 q 563 424 568 399 q 549 471 558 450 q 522 501 539 492 q 496 507 508 510 q 472 494 483 504 q 451 471 461 485 q 436 443 442 457 q 416 366 421 407 q 414 285 411 325 q 413 178 417 232 q 406 72 410 125 q 382 29 401 44 q 347 12 367 18 q 308 3 328 6 q 259 -1 293 0 q 188 -3 225 -3 q 118 -1 151 -3 q 69 4 85 0 q 49 12 58 7 q 32 26 39 17 q 20 52 25 35 q 12 89 15 69 q 7 126 8 108 q 7 156 6 144 q 14 185 10 171 q 29 210 18 199 q 75 235 47 228 q 125 257 103 242 q 142 282 136 267 q 149 313 147 297 q 159 438 156 375 q 163 563 163 500 q 163 622 161 592 q 161 681 164 651 q 156 708 160 692 q 144 729 153 725 q 127 733 140 731 q 99 737 114 735 q 72 740 85 739 q 54 743 58 742 q 36 767 43 749 q 26 796 29 785 q 24 842 22 818 q 36 886 25 865 q 69 922 46 908 q 117 941 92 936 q 169 949 143 946 q 264 949 217 951 q 356 931 311 946 q 375 922 365 926 q 392 910 385 917 q 414 882 406 899 q 428 847 422 865 q 437 747 440 799 q 429 643 433 694 q 507 690 465 669 q 593 721 549 710 q 656 728 624 728 q 717 717 688 728 q 771 683 747 706 q 813 633 794 660 q 855 538 840 589 q 876 433 869 486 q 881 283 885 358 q 864 133 878 208 q 851 65 858 100 q 821 7 844 31 z "},"i":{"ha":372,"x_min":13,"x_max":357,"o":"m 246 671 q 173 660 213 657 q 101 682 133 664 q 73 706 86 692 q 54 738 60 719 q 49 809 44 771 q 75 875 53 847 q 97 896 85 888 q 124 911 110 904 q 191 925 156 925 q 258 914 226 925 q 301 888 282 906 q 329 846 321 869 q 335 785 340 818 q 315 726 331 753 q 285 693 304 707 q 246 671 267 679 m 228 0 q 174 3 201 -4 q 124 25 146 10 q 82 65 100 42 q 51 117 64 89 q 20 228 28 169 q 17 344 13 286 q 22 397 19 371 q 32 450 24 424 q 57 504 40 478 q 97 547 74 531 q 158 572 124 567 q 224 574 192 576 q 282 553 254 571 q 325 510 310 535 q 343 462 339 488 q 350 411 347 436 q 340 174 357 289 q 327 110 335 142 q 301 53 319 79 q 269 19 289 33 q 228 0 250 6 z "},"j":{"ha":442,"x_min":-15,"x_max":419,"o":"m 315 671 q 242 660 282 657 q 171 682 203 664 q 142 706 156 692 q 124 738 129 719 q 118 809 114 771 q 144 875 122 847 q 167 896 154 888 q 193 911 179 904 q 260 925 225 925 q 328 914 296 925 q 371 888 351 906 q 399 846 390 869 q 405 785 410 818 q 385 726 400 753 q 355 693 374 707 q 315 671 336 679 m 240 -200 q 176 -219 211 -215 q 110 -214 142 -224 q 46 -179 74 -203 q 3 -124 18 -156 q -14 -57 -12 -93 q 0 14 -15 -21 q 39 64 13 44 q 77 94 57 79 q 104 132 97 108 q 109 202 113 167 q 103 274 106 238 q 98 365 99 319 q 108 456 97 411 q 124 499 114 478 q 149 538 133 521 q 206 569 171 560 q 256 576 229 576 q 307 574 282 576 q 365 550 342 571 q 392 513 382 535 q 406 468 401 490 q 413 378 414 424 q 415 288 413 332 q 418 172 419 229 q 407 58 417 115 q 354 -87 394 -19 q 305 -151 333 -122 q 240 -200 276 -181 z "},"k":{"ha":825,"x_min":-1,"x_max":819,"o":"m 311 -3 q 276 -10 293 -8 q 239 -11 258 -11 q 192 -9 215 -11 q 149 4 168 -7 q 126 25 135 11 q 111 54 117 39 q 103 115 103 83 q 104 176 103 146 q 111 333 107 256 q 118 489 115 410 q 118 523 118 499 q 117 574 118 547 q 115 625 117 601 q 111 658 114 649 q 108 664 111 664 q 56 683 82 668 q 17 721 31 697 q 0 793 -1 753 q 18 865 1 833 q 66 909 35 894 q 135 928 97 924 q 211 928 172 932 q 282 914 250 924 q 326 893 306 907 q 358 860 346 879 q 377 797 374 831 q 382 731 381 763 q 383 616 383 672 q 381 501 382 560 q 469 576 425 538 q 561 649 513 615 q 625 685 590 669 q 696 699 660 701 q 754 675 728 696 q 785 640 771 661 q 807 597 799 619 q 817 550 815 574 q 808 507 818 526 q 794 487 803 496 q 775 471 786 478 q 740 450 767 465 q 685 417 714 435 q 629 383 656 399 q 594 363 603 368 q 606 355 601 360 q 617 346 611 350 q 688 291 650 315 q 761 239 725 267 q 783 220 772 231 q 801 196 794 210 q 808 128 819 167 q 789 90 801 108 q 761 57 776 72 q 706 22 738 35 q 642 17 674 10 q 567 49 601 25 q 506 103 533 74 q 442 173 472 136 q 385 249 413 210 q 385 176 386 213 q 382 103 385 139 q 376 61 381 82 q 358 24 371 40 q 338 6 351 13 q 311 -3 325 0 z "},"l":{"ha":518,"x_min":4,"x_max":517,"o":"m 299 -25 q 255 -25 286 -25 q 189 -24 224 -25 q 123 -22 154 -22 q 81 -18 92 -21 q 50 -9 65 -15 q 26 10 35 -3 q 20 26 24 15 q 14 51 17 38 q 9 76 11 64 q 7 94 7 88 q 7 143 4 118 q 25 186 10 168 q 64 213 40 206 q 111 228 88 221 q 135 249 125 232 q 146 281 144 267 q 158 426 154 353 q 161 571 163 499 q 162 603 161 582 q 163 648 163 625 q 160 692 163 671 q 150 721 157 713 q 133 728 146 726 q 103 733 119 731 q 73 736 88 735 q 53 740 58 738 q 39 755 44 744 q 29 778 33 765 q 24 806 25 792 q 22 829 22 819 q 31 873 22 851 q 56 908 39 894 q 100 933 75 926 q 150 943 125 940 q 244 944 197 949 q 336 932 290 939 q 378 916 358 928 q 410 885 399 904 q 430 831 425 861 q 436 774 435 801 q 433 693 438 733 q 426 613 429 653 q 410 374 414 494 q 409 343 410 363 q 409 303 408 324 q 413 264 410 282 q 424 238 417 246 q 456 217 436 222 q 489 200 475 213 q 507 171 503 186 q 517 118 517 146 q 510 65 517 90 q 505 49 508 58 q 497 28 501 39 q 486 10 492 18 q 476 -3 481 1 q 441 -15 465 -10 q 390 -22 417 -19 q 337 -24 363 -24 q 299 -25 311 -25 z "},"m":{"ha":1175,"x_min":19,"x_max":1161,"o":"m 1075 11 q 1031 -7 1057 -1 q 978 -12 1006 -12 q 926 -3 951 -11 q 885 18 901 4 q 853 65 863 35 q 847 113 846 89 q 850 160 847 136 q 862 243 854 201 q 867 328 869 285 q 861 376 864 351 q 844 419 858 400 q 806 439 832 438 q 768 425 781 440 q 760 409 764 421 q 752 385 756 397 q 746 360 749 372 q 742 343 743 349 q 733 221 732 282 q 724 99 735 160 q 714 58 721 78 q 692 24 707 38 q 656 1 676 8 q 615 -8 636 -6 q 562 -11 590 -12 q 508 -1 533 -10 q 465 23 483 7 q 440 64 446 39 q 434 130 432 96 q 438 197 436 164 q 440 310 440 253 q 414 417 439 367 q 388 442 404 435 q 356 446 372 449 q 325 430 339 443 q 307 396 311 417 q 303 363 304 379 q 303 331 303 347 q 306 244 303 288 q 313 158 310 201 q 316 113 315 136 q 310 68 317 90 q 300 41 307 54 q 282 18 293 28 q 239 -1 265 6 q 183 -8 213 -7 q 126 -6 154 -10 q 81 7 99 -1 q 55 22 67 13 q 38 46 43 32 q 32 75 33 54 q 31 119 31 96 q 31 164 31 143 q 32 194 32 185 q 33 241 32 207 q 34 314 33 275 q 35 387 35 353 q 35 432 35 421 q 29 469 33 451 q 22 504 25 486 q 20 558 19 531 q 29 610 21 585 q 56 651 38 633 q 99 679 75 668 q 149 694 122 690 q 201 694 176 699 q 251 676 226 690 q 288 639 275 663 q 406 675 340 669 q 531 663 472 681 q 574 645 553 656 q 613 621 594 635 q 658 573 639 600 q 693 517 678 546 q 781 611 729 569 q 896 667 833 653 q 1020 654 961 681 q 1111 569 1079 628 q 1149 464 1138 522 q 1160 373 1158 419 q 1158 281 1161 326 q 1152 215 1157 254 q 1138 135 1147 175 q 1113 60 1128 94 q 1075 11 1097 25 z "},"n":{"ha":757,"x_min":17,"x_max":746,"o":"m 692 11 q 651 -12 676 -4 q 598 -22 626 -19 q 542 -20 569 -24 q 496 -8 515 -17 q 461 14 476 -1 q 440 49 446 29 q 433 115 432 81 q 438 183 435 150 q 440 297 440 239 q 414 404 439 354 q 392 427 406 419 q 365 435 379 435 q 336 427 350 435 q 314 404 322 419 q 303 346 304 386 q 304 260 301 306 q 311 172 307 214 q 315 110 315 131 q 310 53 317 82 q 283 7 304 25 q 244 -12 267 -8 q 199 -19 221 -17 q 151 -21 176 -22 q 101 -13 125 -19 q 60 6 78 -7 q 36 39 42 18 q 33 82 33 51 q 32 153 32 113 q 33 239 32 194 q 35 324 35 283 q 35 396 36 365 q 32 439 35 426 q 19 519 22 478 q 29 599 17 561 q 57 640 38 622 q 101 667 76 657 q 152 682 125 678 q 204 682 179 686 q 252 663 228 678 q 288 626 276 649 q 405 660 340 657 q 529 649 469 664 q 590 623 561 642 q 642 581 619 604 q 699 492 678 542 q 731 390 719 443 q 744 253 746 322 q 729 115 742 183 q 717 59 724 88 q 692 11 711 31 z "},"o":{"ha":754,"x_min":8,"x_max":749,"o":"m 565 13 q 458 -19 515 -11 q 346 -22 401 -28 q 256 -7 301 -18 q 171 28 211 4 q 88 98 124 54 q 33 193 53 142 q 12 299 15 244 q 15 408 8 354 q 31 486 21 447 q 64 558 42 525 q 138 640 94 603 q 232 696 181 676 q 355 719 290 718 q 478 703 419 721 q 564 670 522 690 q 639 619 606 650 q 715 499 693 571 q 732 440 725 469 q 742 378 739 410 q 733 242 749 311 q 681 115 718 172 q 631 56 660 83 q 565 13 601 29 m 364 181 q 398 178 381 174 q 431 194 415 182 q 459 222 446 206 q 482 256 472 239 q 512 334 501 292 q 521 418 522 376 q 517 461 521 439 q 503 503 513 483 q 481 536 494 522 q 446 553 467 550 q 408 546 426 556 q 375 519 390 536 q 347 483 360 503 q 328 444 335 463 q 314 400 319 422 q 306 354 308 378 q 304 306 303 332 q 312 254 306 279 q 331 209 318 229 q 364 181 343 189 z "},"p":{"ha":849,"x_min":0,"x_max":840,"o":"m 331 -264 q 206 -271 267 -282 q 167 -260 186 -268 q 135 -237 149 -253 q 117 -203 124 -225 q 107 -158 110 -182 q 105 -110 104 -133 q 110 -69 106 -86 q 149 176 143 51 q 150 428 154 301 q 106 435 128 432 q 63 446 83 438 q 22 479 36 454 q 6 523 11 497 q 1 575 0 549 q 10 626 3 601 q 33 667 18 650 q 69 695 49 683 q 114 713 90 707 q 217 726 164 724 q 319 711 271 728 q 356 696 339 706 q 383 669 374 686 q 390 637 390 654 q 390 603 390 619 q 489 678 431 651 q 600 697 542 700 q 710 665 658 693 q 781 603 754 640 q 811 549 800 578 q 829 488 822 519 q 838 382 840 435 q 826 278 836 329 q 762 136 813 200 q 640 40 711 72 q 565 21 603 22 q 487 26 526 18 q 411 50 447 35 q 412 -1 411 35 q 412 -75 413 -36 q 409 -149 411 -114 q 401 -197 407 -183 q 374 -239 393 -221 q 331 -264 354 -257 m 447 279 q 468 241 453 257 q 504 233 483 225 q 542 263 526 243 q 569 306 558 283 q 588 368 582 335 q 586 433 593 401 q 576 463 583 449 q 556 483 569 476 q 517 477 538 490 q 485 447 496 464 q 448 366 460 411 q 447 279 436 321 z "},"q":{"ha":824,"x_min":8,"x_max":843,"o":"m 738 -258 q 592 -278 668 -293 q 537 -258 564 -271 q 489 -225 510 -246 q 469 -201 478 -214 q 457 -175 461 -189 q 450 -65 440 -122 q 471 47 460 -7 q 347 10 413 22 q 219 11 282 -1 q 134 44 175 21 q 65 104 93 68 q 21 195 33 143 q 10 299 8 247 q 28 428 11 364 q 78 546 44 492 q 113 593 93 571 q 157 633 133 615 q 274 690 210 674 q 406 696 339 706 q 460 682 433 692 q 511 657 488 672 q 537 707 522 683 q 575 746 551 731 q 624 765 596 760 q 678 767 651 771 q 731 753 706 764 q 774 724 757 742 q 801 673 793 703 q 807 614 808 643 q 784 411 804 511 q 750 208 764 311 q 742 128 744 168 q 747 47 740 88 q 766 13 751 28 q 797 -14 781 -3 q 833 -55 822 -31 q 842 -107 843 -79 q 828 -162 840 -135 q 797 -212 817 -190 q 738 -258 774 -240 m 249 315 q 258 278 250 296 q 277 248 265 261 q 304 229 289 235 q 338 228 319 224 q 381 251 361 233 q 413 293 400 269 q 433 344 426 317 q 438 396 439 371 q 416 463 435 431 q 363 494 397 494 q 316 479 339 494 q 281 444 293 464 q 253 383 261 417 q 249 315 246 349 z "},"r":{"ha":686,"x_min":17,"x_max":690,"o":"m 224 -10 q 183 -10 208 -12 q 133 -3 158 -8 q 84 9 107 1 q 49 28 61 17 q 29 58 35 42 q 23 103 22 81 q 28 150 24 126 q 37 197 32 174 q 43 244 42 221 q 47 341 46 293 q 44 438 47 389 q 33 519 42 478 q 21 600 24 560 q 26 665 17 635 q 58 711 36 692 q 126 747 86 738 q 203 754 165 757 q 246 744 224 751 q 282 721 268 738 q 306 672 300 700 q 318 617 313 644 q 364 656 339 638 q 418 683 389 674 q 484 694 450 694 q 550 683 518 693 q 617 646 590 672 q 642 610 632 631 q 660 571 653 590 q 675 381 690 476 q 663 333 671 357 q 640 289 656 308 q 603 260 626 272 q 561 247 585 251 q 515 245 538 243 q 472 256 492 247 q 439 279 451 264 q 429 300 432 289 q 425 322 426 311 q 427 371 424 346 q 431 419 431 396 q 429 442 431 431 q 421 464 428 454 q 390 482 410 479 q 354 472 369 485 q 333 428 336 456 q 338 382 331 404 q 344 317 343 350 q 346 251 346 285 q 342 178 346 215 q 332 104 339 140 q 318 60 326 82 q 294 22 310 38 q 262 1 281 8 q 224 -10 243 -7 z "},"s":{"ha":597,"x_min":13,"x_max":589,"o":"m 413 6 q 322 -4 368 -4 q 229 1 275 -4 q 153 13 192 6 q 81 36 115 21 q 50 54 65 43 q 26 81 35 65 q 15 117 18 96 q 16 161 13 139 q 27 203 19 183 q 46 238 35 224 q 84 263 61 256 q 131 269 107 269 q 192 263 163 269 q 254 256 222 256 q 278 259 265 257 q 299 269 290 261 q 313 297 311 281 q 300 321 315 314 q 208 356 256 343 q 118 392 161 368 q 40 472 64 421 q 21 574 15 522 q 60 669 26 625 q 154 729 93 713 q 226 744 190 739 q 299 751 263 749 q 373 754 335 754 q 447 750 411 754 q 499 739 474 747 q 543 715 524 731 q 572 679 561 700 q 586 636 583 658 q 585 588 589 613 q 570 543 581 564 q 542 507 560 522 q 501 488 525 492 q 459 487 481 483 q 415 495 438 490 q 372 504 393 500 q 328 506 350 508 q 308 501 318 504 q 293 489 299 499 q 292 473 289 482 q 300 457 294 464 q 327 433 311 442 q 360 417 343 424 q 431 383 396 401 q 499 342 467 365 q 531 310 515 328 q 551 272 546 293 q 560 210 558 240 q 558 147 563 179 q 549 101 556 124 q 526 61 542 78 q 475 25 506 38 q 413 6 444 13 z "},"t":{"ha":640,"x_min":15,"x_max":638,"o":"m 432 -8 q 326 -11 381 -18 q 226 19 272 -4 q 142 88 178 46 q 81 178 107 129 q 40 284 53 228 q 21 397 28 340 q 17 485 15 442 q 21 572 18 528 q 31 667 24 621 q 51 760 38 714 q 69 811 58 786 q 97 856 79 836 q 148 890 118 878 q 208 904 178 901 q 296 892 251 907 q 368 844 340 878 q 381 809 378 832 q 384 760 385 786 q 381 710 383 735 q 375 671 378 686 q 464 666 419 663 q 553 671 508 669 q 562 671 557 671 q 571 669 567 671 q 590 654 583 665 q 603 619 600 640 q 607 574 607 597 q 603 529 607 551 q 592 493 599 507 q 571 467 582 476 q 545 451 560 457 q 515 443 531 446 q 424 430 472 431 q 336 447 376 429 q 326 402 329 425 q 328 357 324 379 q 337 328 331 342 q 354 306 343 315 q 383 290 365 294 q 417 289 401 286 q 455 301 436 292 q 494 315 474 311 q 596 281 556 332 q 628 210 619 250 q 628 132 638 169 q 615 104 625 117 q 594 81 606 92 q 519 24 561 49 q 432 -8 478 0 z "},"u":{"ha":765,"x_min":13,"x_max":749,"o":"m 667 -8 q 614 -23 642 -19 q 560 -22 586 -26 q 513 -3 533 -17 q 479 35 492 11 q 430 15 456 22 q 376 6 404 8 q 242 6 308 -3 q 181 17 211 8 q 126 44 151 26 q 85 85 103 61 q 54 135 67 108 q 26 226 35 178 q 15 322 18 274 q 19 435 13 379 q 36 549 25 492 q 43 588 40 568 q 53 626 46 607 q 70 655 60 642 q 96 676 81 668 q 141 692 114 686 q 197 696 168 697 q 251 688 225 694 q 294 668 278 681 q 314 648 306 660 q 326 622 322 636 q 333 554 335 589 q 329 485 331 519 q 322 419 326 451 q 318 353 318 386 q 320 302 317 328 q 338 256 324 276 q 364 235 347 242 q 399 230 381 229 q 432 240 417 231 q 454 264 447 249 q 463 301 460 279 q 464 392 467 346 q 457 482 461 438 q 452 531 454 507 q 451 581 450 556 q 458 623 453 601 q 478 660 464 644 q 514 682 493 675 q 556 692 535 689 q 603 693 576 693 q 654 688 629 693 q 699 672 679 683 q 728 642 719 661 q 735 596 733 628 q 736 522 736 564 q 735 435 736 481 q 732 347 733 389 q 731 272 731 306 q 735 225 731 239 q 747 145 744 186 q 738 67 749 104 q 710 22 731 42 q 667 -8 690 3 z "},"v":{"ha":708,"x_min":7,"x_max":700,"o":"m 465 -1 q 369 -19 419 -19 q 274 -1 319 -19 q 188 52 226 17 q 126 132 150 88 q 48 330 76 226 q 10 540 19 433 q 8 575 7 557 q 14 611 8 593 q 78 689 26 663 q 145 708 110 704 q 215 708 181 711 q 293 674 263 706 q 303 658 299 667 q 310 642 307 650 q 315 590 313 628 q 321 508 318 551 q 326 427 324 465 q 329 375 328 389 q 333 345 331 360 q 343 317 336 331 q 366 287 351 300 q 396 285 381 274 q 414 315 408 294 q 421 360 419 336 q 421 407 422 383 q 419 446 419 431 q 420 526 419 486 q 428 607 421 567 q 438 644 432 626 q 457 676 444 661 q 492 700 469 692 q 542 712 514 710 q 595 708 569 714 q 643 689 621 703 q 678 654 665 675 q 692 613 689 635 q 697 571 696 592 q 688 429 700 500 q 657 289 675 358 q 622 181 643 235 q 568 82 601 126 q 522 33 547 56 q 465 -1 496 11 z "},"w":{"ha":1047,"x_min":15,"x_max":1035,"o":"m 881 31 q 808 -1 847 8 q 731 -5 769 -10 q 656 17 692 0 q 593 65 621 35 q 540 142 561 100 q 506 229 519 185 q 463 124 490 175 q 392 39 436 74 q 302 -1 354 8 q 204 1 250 -11 q 138 35 168 13 q 85 85 108 57 q 44 161 58 119 q 22 247 29 203 q 16 347 15 296 q 19 446 17 397 q 23 499 21 467 q 30 563 25 531 q 44 624 35 596 q 71 664 54 651 q 113 682 88 676 q 167 688 139 688 q 221 683 194 688 q 265 668 247 678 q 301 626 293 651 q 305 601 306 614 q 303 576 304 589 q 290 497 297 536 q 283 417 283 457 q 284 392 283 406 q 289 368 285 379 q 316 333 297 346 q 354 333 335 319 q 372 360 368 343 q 376 394 376 378 q 377 441 376 410 q 380 507 378 472 q 386 572 382 542 q 399 615 390 601 q 433 646 411 635 q 483 661 456 657 q 538 664 510 665 q 588 657 565 663 q 622 646 606 653 q 650 624 639 639 q 661 586 661 607 q 658 546 661 565 q 655 510 656 528 q 654 475 654 493 q 656 439 654 457 q 660 403 657 421 q 674 367 664 383 q 699 341 685 350 q 727 333 713 332 q 753 351 742 335 q 766 384 763 367 q 769 419 769 401 q 769 470 772 444 q 763 521 767 496 q 756 565 760 543 q 754 607 751 586 q 769 647 756 631 q 801 674 782 664 q 846 689 821 685 q 894 692 871 693 q 938 683 917 689 q 978 663 960 676 q 995 642 989 654 q 1007 617 1001 629 q 1027 534 1022 576 q 1033 450 1032 492 q 1026 322 1035 386 q 996 197 1017 258 q 951 103 979 149 q 881 31 922 58 z "},"x":{"ha":678,"x_min":6,"x_max":671,"o":"m 182 -8 q 157 -15 171 -14 q 131 -14 143 -17 q 89 -3 110 -11 q 50 15 68 4 q 31 31 40 22 q 17 51 22 40 q 10 104 6 74 q 28 163 14 135 q 61 215 43 192 q 80 240 67 222 q 109 277 93 257 q 138 315 125 297 q 157 338 151 332 q 165 344 160 340 q 168 350 171 347 q 90 453 126 403 q 60 496 75 474 q 35 542 46 518 q 25 581 26 560 q 33 619 24 603 q 75 657 49 643 q 129 679 101 671 q 172 690 150 686 q 215 688 194 694 q 247 669 233 682 q 271 640 260 656 q 313 574 294 608 q 347 503 331 539 q 401 567 372 536 q 463 624 429 597 q 501 649 481 638 q 546 660 522 660 q 593 650 569 661 q 625 626 610 642 q 651 590 640 610 q 666 548 661 569 q 667 508 671 526 q 654 476 664 492 q 633 449 644 460 q 564 392 601 417 q 490 342 526 367 q 512 319 496 336 q 547 282 528 301 q 582 245 565 263 q 603 222 599 228 q 633 181 619 203 q 651 135 647 160 q 651 94 654 115 q 638 57 649 74 q 603 24 625 38 q 557 2 582 10 q 506 -6 532 -6 q 457 1 479 -6 q 417 26 435 10 q 386 63 400 43 q 351 119 367 90 q 318 178 335 149 q 315 174 318 178 q 274 103 294 139 q 231 36 254 68 q 209 10 221 22 q 182 -8 197 -1 z "},"y":{"ha":806,"x_min":8,"x_max":790,"o":"m 363 -310 q 288 -307 325 -312 q 215 -287 250 -301 q 142 -243 172 -272 q 117 -206 126 -228 q 104 -162 107 -185 q 108 -97 100 -131 q 139 -42 117 -64 q 203 -12 164 -17 q 285 -15 243 -7 q 369 -17 328 -22 q 410 -7 389 -14 q 446 17 432 0 q 456 47 456 29 q 453 81 457 65 q 413 65 433 69 q 372 56 393 60 q 317 49 344 51 q 263 49 290 47 q 226 51 244 49 q 190 60 207 53 q 124 94 156 74 q 72 146 93 115 q 42 198 54 169 q 24 257 31 226 q 10 375 8 315 q 31 492 13 435 q 75 582 46 539 q 149 649 104 625 q 175 658 161 656 q 204 661 189 661 q 279 653 243 664 q 326 634 303 647 q 361 600 350 621 q 371 551 372 578 q 363 500 369 524 q 342 438 354 468 q 324 375 331 407 q 319 348 321 361 q 319 321 317 335 q 359 265 326 283 q 428 261 392 247 q 461 285 447 268 q 478 321 475 301 q 478 360 479 331 q 477 421 478 389 q 476 482 476 453 q 475 521 475 511 q 475 537 475 529 q 478 553 475 544 q 510 598 486 579 q 560 625 533 617 q 617 633 588 633 q 674 622 647 632 q 712 598 694 614 q 739 563 729 582 q 771 462 761 514 q 783 357 781 410 q 788 169 790 264 q 758 -15 785 75 q 716 -122 743 -71 q 649 -214 689 -174 q 601 -251 628 -236 q 546 -276 574 -265 q 456 -300 501 -293 q 363 -310 410 -307 z "},"z":{"ha":724,"x_min":13,"x_max":717,"o":"m 676 22 q 634 -16 661 0 q 579 -32 607 -32 q 486 -24 532 -32 q 393 -17 440 -17 q 273 -24 332 -15 q 153 -26 214 -32 q 99 -14 126 -24 q 57 17 72 -4 q 33 87 36 46 q 44 161 31 128 q 67 197 53 181 q 99 228 82 214 q 184 284 139 261 q 274 335 229 307 q 325 372 300 351 q 369 415 350 392 q 392 458 382 432 q 389 501 401 483 q 361 517 381 514 q 324 515 346 521 q 293 494 301 508 q 278 458 283 476 q 265 419 272 439 q 232 365 254 385 q 178 338 210 344 q 116 338 147 331 q 59 363 85 344 q 22 410 33 381 q 13 465 13 433 q 19 530 13 497 q 38 592 25 563 q 69 640 51 622 q 124 676 93 664 q 188 694 156 689 q 357 707 271 707 q 526 692 443 707 q 579 679 553 686 q 628 657 606 672 q 660 618 650 642 q 671 567 669 594 q 665 510 672 539 q 647 458 658 482 q 616 408 635 431 q 578 363 597 385 q 491 276 536 318 q 406 188 446 235 q 423 186 411 188 q 448 185 435 185 q 472 185 461 185 q 489 189 483 186 q 503 201 493 190 q 525 222 514 211 q 547 243 536 233 q 561 256 557 253 q 615 266 585 268 q 669 250 646 264 q 704 218 692 239 q 715 174 714 200 q 712 119 717 147 q 698 65 707 92 q 676 22 689 39 z "},"{":{"ha":563,"x_min":7,"x_max":542,"o":"m 367 -25 q 294 -26 331 -28 q 224 -12 258 -24 q 158 28 185 1 q 140 56 147 40 q 126 88 132 72 q 113 154 117 119 q 99 221 110 189 q 66 270 88 249 q 31 318 44 292 q 11 380 15 346 q 18 443 7 414 q 33 472 24 458 q 53 500 43 486 q 73 528 64 514 q 86 558 82 542 q 96 617 94 588 q 98 677 97 647 q 100 738 99 707 q 110 797 101 768 q 149 874 121 838 q 218 928 178 911 q 249 933 226 932 q 295 935 271 935 q 342 937 319 936 q 374 938 364 938 q 411 939 393 938 q 449 938 429 940 q 474 932 461 936 q 499 919 488 928 q 517 895 510 908 q 528 868 524 882 q 535 771 542 822 q 526 730 532 750 q 507 693 519 710 q 454 657 486 668 q 430 649 447 654 q 393 640 413 644 q 357 628 374 635 q 335 617 340 622 q 326 601 329 613 q 320 576 322 589 q 317 550 318 563 q 315 531 315 538 q 302 484 313 507 q 274 444 292 461 q 308 430 292 440 q 332 404 324 419 q 347 363 343 385 q 363 324 351 342 q 383 313 368 315 q 416 309 399 310 q 451 308 433 308 q 478 306 468 308 q 511 285 497 301 q 526 260 521 274 q 533 231 531 246 q 538 181 538 211 q 535 119 539 150 q 522 60 531 88 q 499 19 513 33 q 474 1 488 8 q 447 -11 461 -6 q 407 -20 428 -18 q 367 -25 386 -22 z "},"}":{"ha":563,"x_min":25,"x_max":558,"o":"m 340 -12 q 269 -26 306 -24 q 197 -25 233 -28 q 153 -19 175 -22 q 113 -8 132 -15 q 81 6 96 -3 q 56 31 67 15 q 35 78 40 51 q 28 129 31 104 q 26 203 25 165 q 44 272 26 240 q 64 294 51 285 q 90 307 76 304 q 113 308 97 308 q 144 310 128 308 q 176 313 161 311 q 197 318 190 314 q 208 333 203 322 q 217 356 213 343 q 224 380 221 368 q 229 399 226 392 q 254 428 236 417 q 290 444 272 440 q 250 526 254 478 q 247 547 249 533 q 244 574 246 560 q 238 599 242 588 q 231 617 235 611 q 210 628 225 622 q 177 638 194 633 q 143 647 160 643 q 118 654 126 651 q 91 665 104 658 q 67 683 78 672 q 42 724 51 699 q 30 776 33 749 q 29 832 26 804 q 40 881 32 860 q 60 911 47 897 q 88 932 72 925 q 150 949 117 947 q 215 949 183 950 q 274 943 244 946 q 332 932 303 940 q 408 883 375 921 q 454 801 442 844 q 465 741 463 772 q 467 678 467 710 q 468 616 467 647 q 478 556 469 585 q 492 524 482 539 q 513 496 503 510 q 534 467 524 482 q 549 436 544 453 q 552 372 558 406 q 529 311 546 339 q 493 265 514 286 q 464 215 472 243 q 449 137 453 178 q 428 60 444 96 q 392 16 415 35 q 340 -12 368 -3 z "},"~":{"ha":833,"x_min":17,"x_max":817,"o":"m 185 210 q 102 210 144 194 q 38 261 60 225 q 18 323 19 289 q 26 389 17 357 q 53 439 36 415 q 89 482 69 463 q 138 522 113 504 q 192 551 163 540 q 263 561 224 564 q 303 553 283 560 q 343 539 324 547 q 393 513 369 528 q 442 486 417 499 q 476 476 457 479 q 510 481 494 474 q 540 501 526 489 q 568 526 554 514 q 596 550 582 539 q 626 568 610 561 q 668 576 646 576 q 710 569 690 576 q 765 545 738 561 q 806 501 793 529 q 816 459 815 482 q 813 414 817 436 q 772 316 803 363 q 699 240 742 269 q 638 213 672 221 q 571 214 603 206 q 496 249 531 224 q 428 300 461 275 q 388 322 407 317 q 340 322 364 329 q 313 307 325 317 q 288 286 300 297 q 240 242 264 264 q 185 210 215 221 z "}," ":{"ha":347,"x_min":0,"x_max":0,"o":""},"¢":{"ha":679,"x_min":15,"x_max":661,"o":"m 456 18 q 390 -20 433 -15 q 313 -6 347 -25 q 281 28 289 6 q 276 67 274 47 q 282 106 279 86 q 196 124 239 113 q 118 163 153 136 q 47 251 71 196 q 17 402 15 321 q 40 558 18 483 q 62 621 49 590 q 94 678 75 651 q 123 707 107 694 q 157 731 139 719 q 217 759 186 746 q 281 779 249 772 q 278 819 279 799 q 278 858 276 839 q 284 883 279 871 q 299 903 289 896 q 338 922 315 917 q 382 926 361 926 q 417 923 400 926 q 447 908 435 919 q 468 871 464 894 q 473 830 472 851 q 471 788 474 808 q 535 774 503 782 q 594 747 567 765 q 622 721 610 736 q 638 686 635 706 q 635 644 640 667 q 620 598 631 621 q 595 556 610 575 q 565 526 581 536 q 514 515 542 513 q 469 524 490 517 q 425 538 447 531 q 393 546 410 543 q 361 544 376 549 q 322 508 335 536 q 311 454 308 481 q 319 425 314 439 q 335 401 324 411 q 350 393 342 394 q 367 393 358 392 q 413 398 390 393 q 460 408 436 403 q 506 417 483 413 q 553 421 529 421 q 596 413 574 421 q 632 389 618 406 q 645 365 640 378 q 653 339 650 353 q 659 293 657 315 q 658 249 661 271 q 631 176 656 206 q 560 130 603 144 q 474 108 517 115 q 473 61 476 85 q 456 18 469 38 z "},"£":{"ha":797,"x_min":11,"x_max":792,"o":"m 756 40 q 676 1 731 14 q 558 -17 621 -12 q 435 -22 496 -22 q 339 -22 375 -22 q 233 -20 286 -21 q 131 -4 181 -19 q 95 8 113 1 q 65 28 78 15 q 39 83 43 49 q 42 146 35 117 q 51 174 44 161 q 68 197 57 188 q 90 213 78 207 q 114 222 101 218 q 135 229 125 225 q 151 240 144 233 q 159 272 163 253 q 153 306 156 290 q 96 303 125 303 q 43 319 67 304 q 22 347 29 329 q 13 386 15 365 q 13 428 11 407 q 19 465 15 449 q 36 501 25 485 q 65 526 47 518 q 110 538 86 538 q 157 536 133 538 q 165 656 158 596 q 196 769 171 717 q 237 831 211 803 q 294 876 263 858 q 412 921 350 906 q 536 932 474 936 q 625 908 581 928 q 701 856 669 888 q 731 815 718 838 q 749 769 743 793 q 751 741 751 756 q 746 713 750 726 q 710 655 738 681 q 651 618 683 629 q 616 615 635 613 q 582 624 597 617 q 530 652 554 635 q 478 683 506 669 q 452 694 465 689 q 424 699 439 700 q 401 692 413 699 q 383 676 390 686 q 357 606 363 644 q 350 529 351 567 q 396 533 374 532 q 440 532 418 535 q 471 524 456 529 q 497 508 486 519 q 526 456 519 489 q 531 394 533 424 q 523 354 528 375 q 503 319 518 333 q 473 306 493 311 q 431 298 453 300 q 387 297 408 296 q 351 299 365 297 q 351 285 351 294 q 351 265 351 275 q 352 247 351 256 q 356 235 353 239 q 373 219 361 224 q 400 213 385 214 q 431 212 415 211 q 457 214 446 213 q 527 224 493 218 q 597 236 561 231 q 653 241 625 240 q 707 235 681 242 q 758 203 738 225 q 785 152 778 181 q 785 94 792 124 q 756 40 778 64 z "},"¤":{"ha":857,"x_min":17,"x_max":844,"o":"m 181 28 q 144 25 164 21 q 108 36 125 29 q 73 62 89 46 q 53 99 57 78 q 55 124 50 111 q 67 149 60 138 q 103 187 82 169 q 143 224 124 204 q 90 307 110 258 q 70 399 74 351 q 75 493 67 447 q 90 556 81 525 q 119 614 100 588 q 95 633 111 621 q 64 660 79 646 q 36 688 49 674 q 21 713 24 701 q 22 741 17 726 q 38 769 28 756 q 60 794 47 782 q 85 813 72 806 q 114 827 99 821 q 146 835 129 833 q 169 830 157 836 q 189 817 181 824 q 203 799 193 813 q 226 772 214 786 q 248 743 238 757 q 263 725 258 729 q 315 741 289 736 q 369 749 342 746 q 483 739 426 753 q 590 700 539 725 q 616 737 603 719 q 644 771 629 754 q 685 806 661 790 q 736 821 710 822 q 778 807 758 819 q 815 779 799 794 q 837 744 829 765 q 836 707 844 724 q 813 679 831 696 q 773 647 794 663 q 731 616 751 631 q 701 594 711 601 q 726 531 717 564 q 738 463 735 497 q 735 367 743 415 q 704 276 726 319 q 737 260 717 271 q 778 238 757 250 q 815 211 799 225 q 836 185 832 197 q 838 164 839 175 q 832 143 836 153 q 811 110 825 126 q 780 83 797 94 q 744 64 763 71 q 707 60 725 57 q 683 67 694 61 q 663 83 672 74 q 626 122 643 101 q 593 163 610 143 q 528 138 563 147 q 460 126 494 129 q 286 142 374 118 q 266 117 279 133 q 237 82 253 100 q 206 48 221 64 q 181 28 190 32 m 406 293 q 448 304 428 290 q 483 335 468 318 q 526 417 513 369 q 536 508 540 464 q 526 549 533 529 q 508 584 519 569 q 481 606 497 599 q 446 607 465 613 q 399 578 419 600 q 364 526 378 556 q 343 465 350 497 q 338 404 336 432 q 342 368 338 388 q 354 333 346 349 q 376 306 363 317 q 406 293 389 294 z "},"¥":{"ha":882,"x_min":-18,"x_max":894,"o":"m 542 1 q 488 -10 515 -7 q 433 -10 461 -12 q 389 -3 411 -7 q 347 13 367 1 q 319 35 332 21 q 299 65 306 49 q 289 109 289 86 q 292 154 289 132 q 265 153 283 154 q 226 151 246 151 q 188 151 206 150 q 163 154 171 151 q 135 183 144 163 q 130 238 124 206 q 157 285 136 269 q 183 296 168 293 q 211 299 197 299 q 260 294 236 297 q 310 288 285 292 q 313 312 311 300 q 315 336 314 324 q 278 332 303 335 q 226 328 253 329 q 176 327 200 326 q 142 335 153 328 q 122 360 126 343 q 117 399 115 379 q 124 438 118 418 q 137 468 128 453 q 160 490 146 483 q 211 499 183 503 q 265 493 239 496 q 200 599 236 547 q 115 689 164 650 q 72 715 96 704 q 26 738 49 725 q -1 764 10 746 q -18 828 -18 792 q -1 893 -18 865 q 14 911 6 903 q 33 924 22 919 q 96 941 63 939 q 163 944 129 943 q 227 944 194 946 q 288 928 260 943 q 318 903 304 918 q 343 872 332 888 q 417 756 382 815 q 483 636 451 697 q 511 689 492 650 q 553 772 531 728 q 598 856 576 817 q 629 907 619 894 q 683 947 649 933 q 749 957 717 960 q 803 945 776 956 q 850 917 829 935 q 883 876 871 900 q 893 825 894 853 q 881 776 892 806 q 853 714 871 747 q 815 645 836 681 q 774 578 794 610 q 735 519 754 546 q 706 478 717 493 q 731 476 718 478 q 756 469 744 475 q 779 438 775 457 q 781 421 781 431 q 781 400 782 411 q 779 379 781 389 q 774 364 778 369 q 756 351 765 353 q 730 347 749 349 q 690 346 711 346 q 651 346 669 346 q 625 346 633 346 l 625 286 q 667 289 646 289 q 708 286 688 289 q 733 278 721 283 q 753 263 746 272 q 769 220 768 246 q 754 178 769 194 q 737 165 747 169 q 715 157 726 160 q 668 152 692 153 q 621 153 644 151 q 607 67 618 106 q 599 46 604 56 q 588 29 594 36 q 566 12 578 18 q 542 1 554 6 z "},"­":{"ha":0,"x_min":0,"x_max":0,"o":""},"±":{"ha":729,"x_min":17,"x_max":711,"o":"m 468 310 q 431 299 453 301 q 383 297 408 296 q 335 302 358 297 q 299 315 313 307 q 279 333 288 322 q 264 354 271 343 q 246 422 249 386 q 243 492 243 457 q 191 491 217 492 q 140 493 165 490 q 100 500 121 496 q 64 515 79 504 q 33 561 40 531 q 28 619 25 592 q 38 658 31 639 q 58 690 44 676 q 90 712 72 704 q 126 724 107 719 q 188 734 157 731 q 249 739 218 738 q 257 796 251 768 q 275 850 263 824 q 295 883 282 868 q 325 907 308 899 q 394 922 357 922 q 463 910 431 922 q 514 853 503 893 q 521 795 521 825 q 519 736 521 765 q 575 733 547 735 q 631 722 603 731 q 665 706 649 715 q 692 681 682 696 q 704 649 700 668 q 710 610 708 631 q 708 569 711 589 q 700 538 706 550 q 654 500 685 508 q 583 490 619 489 q 510 493 546 490 q 511 417 510 456 q 499 344 513 379 q 468 310 489 322 m 626 4 q 544 -1 586 -3 q 460 3 501 1 q 406 2 447 3 q 316 1 364 1 q 226 1 268 1 q 172 0 185 0 q 110 3 142 0 q 56 24 79 7 q 31 53 40 35 q 19 92 22 71 q 19 134 17 113 q 31 172 22 156 q 67 211 43 196 q 118 233 92 226 q 171 243 144 240 q 225 247 197 246 q 457 247 340 251 q 517 244 488 246 q 578 240 547 243 q 630 228 604 238 q 675 201 656 219 q 693 170 688 188 q 701 135 699 153 q 702 83 704 110 q 685 35 700 56 q 659 14 675 21 q 626 4 643 7 z "},"×":{"ha":638,"x_min":22,"x_max":618,"o":"m 208 99 q 176 85 193 90 q 142 85 158 81 q 107 103 125 89 q 73 135 89 117 q 45 174 57 154 q 29 211 33 194 q 33 257 25 236 q 73 326 44 296 q 129 386 101 357 q 93 422 111 404 q 60 460 75 440 q 38 492 47 475 q 25 528 28 508 q 27 560 22 543 q 40 590 32 576 q 87 641 58 618 q 149 667 115 664 q 194 662 171 669 q 236 643 217 654 q 284 608 261 628 q 329 568 307 589 q 379 605 353 588 q 435 633 406 622 q 474 644 453 640 q 514 640 494 647 q 559 613 539 631 q 594 574 579 596 q 610 545 604 560 q 617 515 617 531 q 613 488 618 501 q 601 463 608 474 q 560 415 583 436 q 514 371 538 393 q 549 328 532 350 q 579 281 567 307 q 590 245 586 264 q 590 208 594 226 q 574 172 586 192 q 544 135 561 153 q 508 105 528 118 q 472 88 489 92 q 421 94 446 81 q 364 138 389 111 q 315 193 339 165 q 264 143 289 168 q 208 99 239 118 z "},"÷":{"ha":672,"x_min":-8,"x_max":678,"o":"m 408 596 q 356 569 385 574 q 302 574 328 564 q 258 606 276 583 q 238 660 239 628 q 263 735 233 701 q 314 766 285 760 q 370 763 343 772 q 417 731 397 754 q 439 675 436 708 q 408 596 442 629 m 600 246 q 517 240 560 238 q 435 244 475 243 q 379 244 421 244 q 290 243 338 243 q 200 242 242 243 q 146 242 158 242 q 84 245 115 242 q 29 268 53 249 q 6 297 14 279 q -4 335 -1 315 q -6 389 -8 361 q 11 440 -3 417 q 38 471 21 458 q 74 490 54 483 q 143 507 107 503 q 215 513 179 511 q 315 515 265 515 q 415 513 365 514 q 484 510 450 511 q 551 504 518 508 q 604 491 578 501 q 649 461 631 481 q 669 418 664 443 q 676 368 675 393 q 674 323 678 346 q 658 281 671 300 q 633 257 649 265 q 600 246 617 249 m 408 24 q 356 -3 385 1 q 302 2 328 -8 q 258 35 276 13 q 238 89 239 57 q 263 164 233 131 q 314 195 285 189 q 370 192 343 201 q 417 160 397 183 q 439 104 436 138 q 408 24 442 57 z "},"‘":{"ha":214,"x_min":19,"x_max":197,"o":"m 140 667 q 116 656 132 660 q 89 657 100 651 q 56 691 69 667 q 35 745 43 715 q 23 805 26 775 q 19 857 19 835 q 24 886 19 871 q 40 911 28 901 q 67 926 51 921 q 101 933 83 932 q 135 933 119 935 q 159 926 147 931 q 178 913 171 921 q 193 880 189 899 q 196 843 197 861 q 192 801 196 826 q 180 749 188 775 q 163 699 172 722 q 140 667 153 676 z "},"’":{"ha":214,"x_min":19,"x_max":197,"o":"m 140 667 q 116 656 132 660 q 89 657 100 651 q 56 691 69 667 q 35 745 43 715 q 23 805 26 775 q 19 857 19 835 q 24 886 19 871 q 40 911 28 901 q 67 926 51 921 q 101 933 83 932 q 135 933 119 935 q 159 926 147 931 q 178 913 171 921 q 193 880 189 899 q 196 843 197 861 q 192 801 196 826 q 180 749 188 775 q 163 699 172 722 q 140 667 153 676 z "},"“":{"ha":449,"x_min":19,"x_max":429,"o":"m 140 664 q 116 652 132 657 q 89 653 100 647 q 56 687 69 663 q 35 741 43 711 q 23 801 26 771 q 19 854 19 832 q 24 882 19 869 q 40 907 28 897 q 67 922 51 917 q 101 929 83 928 q 135 929 119 931 q 159 922 147 926 q 178 908 171 917 q 193 876 189 894 q 196 839 197 857 q 192 797 196 822 q 180 745 188 771 q 163 697 172 719 q 140 664 153 674 m 374 657 q 348 646 364 650 q 322 647 332 642 q 290 681 303 657 q 268 735 276 706 q 256 795 260 765 q 253 847 253 825 q 253 862 253 854 q 256 876 253 869 q 272 901 260 892 q 301 917 285 911 q 335 923 317 922 q 368 922 353 924 q 411 901 394 919 q 426 869 422 888 q 429 832 429 850 q 425 790 429 815 q 413 738 421 764 q 396 690 406 713 q 374 657 386 667 z "},"”":{"ha":449,"x_min":19,"x_max":429,"o":"m 140 664 q 116 652 132 657 q 89 653 100 647 q 56 687 69 663 q 35 741 43 711 q 23 801 26 771 q 19 854 19 832 q 24 882 19 869 q 40 907 28 897 q 67 922 51 917 q 101 929 83 928 q 135 929 119 931 q 159 922 147 926 q 178 908 171 917 q 193 876 189 894 q 196 839 197 857 q 192 797 196 822 q 180 745 188 771 q 163 697 172 719 q 140 664 153 674 m 374 657 q 348 646 364 650 q 322 647 332 642 q 290 681 303 657 q 268 735 276 706 q 256 795 260 765 q 253 847 253 825 q 253 862 253 854 q 256 876 253 869 q 272 901 260 892 q 301 917 285 911 q 335 923 317 922 q 368 922 353 924 q 411 901 394 919 q 426 869 422 888 q 429 832 429 850 q 425 790 429 815 q 413 738 421 764 q 396 690 406 713 q 374 657 386 667 z "},"€":{"ha":918,"x_min":10,"x_max":897,"o":"m 769 15 q 663 -12 718 -4 q 554 -22 608 -21 q 444 -15 499 -22 q 338 10 389 -8 q 261 48 297 24 q 194 101 225 72 q 130 192 154 140 q 94 299 106 244 q 65 294 81 296 q 38 301 49 293 q 22 322 28 308 q 13 351 15 335 q 10 383 10 367 q 13 411 10 399 q 19 431 15 425 q 47 447 29 444 q 82 451 65 449 q 83 473 82 463 q 85 494 83 483 q 54 492 69 492 q 28 501 39 493 q 15 519 19 508 q 11 539 11 529 q 20 594 10 567 q 58 624 31 621 q 85 624 72 625 q 111 622 97 624 q 158 725 128 676 q 226 817 189 774 q 269 858 246 839 q 319 892 292 878 q 481 941 394 928 q 649 939 567 954 q 741 912 696 932 q 818 857 786 892 q 861 786 846 826 q 879 706 876 746 q 869 647 881 674 q 835 601 857 621 q 785 569 814 581 q 725 556 757 557 q 649 572 685 553 q 596 606 621 588 q 540 636 571 625 q 463 640 501 650 q 397 599 425 631 q 428 602 410 600 q 466 604 447 604 q 501 600 485 604 q 525 586 517 596 q 535 563 533 576 q 538 538 536 550 q 533 509 538 524 q 518 488 529 494 q 485 480 508 482 q 434 477 461 478 q 382 476 407 476 q 346 476 357 476 q 344 460 344 468 q 343 446 344 453 q 388 449 361 447 q 442 451 415 451 q 493 446 469 451 q 528 426 517 440 q 540 397 538 413 q 538 365 543 381 q 522 338 533 350 q 496 322 511 326 q 436 315 467 314 q 374 314 406 315 q 449 274 403 281 q 513 276 481 268 q 576 294 546 283 q 611 308 586 299 q 664 327 636 317 q 717 346 692 338 q 753 356 743 354 q 797 353 775 360 q 845 323 825 344 q 877 272 865 301 q 893 211 889 243 q 893 150 897 179 q 880 106 889 128 q 856 68 871 85 q 815 37 838 49 q 769 15 793 25 z "},"™":{"ha":1122,"x_min":6,"x_max":1097,"o":"m 313 485 q 290 464 306 472 q 256 452 275 456 q 218 448 238 449 q 185 450 199 447 q 149 459 167 453 q 121 479 132 465 q 111 505 113 490 q 110 533 110 519 q 112 582 110 546 q 116 659 114 618 q 120 736 118 700 q 124 785 122 772 q 90 786 107 785 q 56 792 72 788 q 37 800 46 794 q 21 814 28 806 q 10 862 6 836 q 35 903 14 888 q 72 919 51 915 q 113 925 93 922 q 199 928 156 929 q 286 925 242 926 q 346 924 315 924 q 404 913 376 924 q 429 892 421 906 q 438 862 438 878 q 431 831 438 846 q 408 806 424 815 q 360 790 388 792 q 307 786 333 788 q 308 721 308 754 q 311 654 308 688 q 318 594 314 624 q 322 533 322 564 q 320 508 321 521 q 313 485 319 496 m 617 456 q 590 451 606 453 q 558 452 574 450 q 528 460 542 454 q 507 474 514 465 q 494 509 494 489 q 497 549 494 529 q 508 635 503 593 q 517 722 514 678 q 517 737 517 726 q 517 759 517 747 q 517 781 517 771 q 517 796 517 792 q 498 797 511 796 q 481 800 485 797 q 463 828 468 807 q 457 864 457 849 q 461 886 457 875 q 474 906 465 897 q 502 919 483 915 q 542 924 521 924 q 585 924 564 925 q 618 921 606 922 q 657 911 638 918 q 692 890 676 904 q 722 845 704 878 q 758 775 740 813 q 790 703 776 738 q 811 653 804 669 q 835 690 824 672 q 858 726 847 707 q 894 801 879 763 q 928 875 908 839 q 946 903 935 890 q 972 921 957 917 q 994 924 981 922 q 1022 924 1007 925 q 1050 920 1036 922 q 1071 914 1064 918 q 1087 895 1082 907 q 1094 872 1092 883 q 1096 840 1097 857 q 1092 808 1094 824 q 1087 710 1088 760 q 1089 613 1086 661 q 1092 564 1090 589 q 1092 515 1094 539 q 1088 496 1090 506 q 1082 478 1086 486 q 1031 453 1067 456 q 968 457 994 450 q 952 463 960 460 q 939 472 944 465 q 928 505 932 482 q 924 554 925 528 q 922 604 922 581 q 921 640 921 628 q 906 605 914 622 q 889 571 897 588 q 874 546 882 558 q 856 525 867 533 q 831 514 846 518 q 801 509 817 510 q 771 510 786 508 q 746 519 756 513 q 724 542 736 525 q 701 579 713 558 q 679 619 689 600 q 664 649 669 639 q 663 616 664 639 q 661 567 663 593 q 657 519 660 542 q 651 486 654 496 q 617 456 643 461 z "},"−":{"ha":719,"x_min":17,"x_max":703,"o":"m 593 194 q 559 194 585 194 q 504 195 533 194 q 449 197 475 196 q 415 197 424 197 q 362 197 401 197 q 277 195 322 196 q 192 194 232 194 q 139 196 153 194 q 94 201 117 197 q 54 219 72 206 q 31 249 39 231 q 21 286 24 268 q 19 343 17 314 q 38 396 22 372 q 67 426 49 414 q 106 444 86 438 q 163 459 133 456 q 224 464 193 463 q 326 467 275 467 q 428 465 376 467 q 497 463 463 464 q 565 458 531 461 q 624 444 594 454 q 674 414 654 435 q 694 369 689 394 q 701 321 700 344 q 699 270 703 296 q 679 225 694 244 q 640 201 664 207 q 593 194 617 196 z "},"`":{"ha":340,"x_min":11,"x_max":329,"o":"m 322 711 q 292 671 311 686 q 249 649 272 656 q 200 648 225 643 q 154 668 175 653 q 138 683 146 675 q 122 697 131 690 q 78 740 101 715 q 40 793 56 765 q 17 849 24 821 q 24 901 11 876 q 43 922 31 914 q 68 936 56 929 q 110 949 88 944 q 151 946 132 953 q 178 928 167 939 q 201 906 190 917 q 220 883 206 900 q 251 847 235 865 q 281 810 267 828 q 300 788 296 793 q 316 767 308 778 q 326 744 324 757 q 327 727 329 736 q 322 711 325 718 z "},"|":{"ha":411,"x_min":35,"x_max":376,"o":"m 231 -100 q 175 -101 203 -103 q 122 -89 147 -99 q 90 -67 104 -82 q 68 -35 76 -51 q 47 24 53 -7 q 38 88 40 56 q 35 192 35 140 q 36 297 35 244 q 40 468 38 383 q 49 638 42 553 q 60 735 53 686 q 83 832 68 785 q 107 886 92 860 q 146 931 122 913 q 190 952 165 944 q 242 960 215 960 q 292 953 268 961 q 333 929 317 946 q 357 894 349 914 q 369 853 365 874 q 375 802 374 828 q 376 750 376 776 q 374 693 376 733 q 370 600 372 653 q 365 488 368 547 q 360 375 363 428 q 356 281 358 322 q 354 225 354 240 q 354 122 354 172 q 344 21 354 71 q 332 -25 340 -3 q 308 -64 324 -47 q 272 -88 293 -79 q 231 -100 251 -97 z "}}}
